<svg width="1098" height="956" viewBox="0 0 1098 956" fill="none" xmlns="http://www.w3.org/2000/svg">
<g opacity="0.4" clip-path="url(#clip0_73_7318)">
<g opacity="0.79">
<path d="M890.679 435.679H785.415L732.769 349.331L785.415 262.957H890.679L943.324 349.331L890.679 435.679ZM786.849 433.308H889.244L940.456 349.331L889.244 265.327H786.849L735.637 349.331L786.849 433.308Z" fill="#81CCCB"/>
<path d="M581.13 264.822H475.867L423.221 178.528L475.867 92.1807H581.13L633.776 178.528L581.13 264.822ZM477.301 262.478H579.696L630.907 178.528L579.696 94.5511H477.301L426.089 178.528L477.301 262.478Z" fill="#81CCCB"/>
<path d="M265.845 946.12L263.68 944.948L315.791 859.106H316.523L421.083 858.92L473.532 944.601L471.367 945.773L419.649 861.29L317.254 861.45L265.845 946.12Z" fill="#81CCCB"/>
<path d="M260.446 938.476C261.92 937.673 263.611 937.302 265.308 937.409C267.005 937.516 268.63 938.096 269.978 939.077C271.327 940.058 272.338 941.396 272.885 942.92C273.432 944.445 273.489 946.089 273.05 947.645C272.611 949.201 271.695 950.598 270.418 951.662C269.141 952.725 267.56 953.406 265.874 953.619C264.189 953.832 262.474 953.567 260.947 952.858C259.421 952.149 258.15 951.028 257.296 949.636C256.723 948.708 256.349 947.683 256.197 946.618C256.045 945.553 256.118 944.471 256.411 943.433C256.704 942.395 257.211 941.423 257.904 940.572C258.596 939.721 259.46 939.008 260.446 938.476Z" fill="#C0E5E5"/>
<path d="M468.133 938.129C469.607 937.326 471.298 936.955 472.995 937.062C474.692 937.169 476.317 937.75 477.665 938.731C479.014 939.711 480.026 941.049 480.572 942.574C481.119 944.099 481.176 945.743 480.737 947.298C480.298 948.854 479.382 950.252 478.105 951.315C476.828 952.378 475.246 953.059 473.561 953.272C471.875 953.485 470.161 953.22 468.634 952.511C467.108 951.802 465.837 950.681 464.982 949.289C463.84 947.413 463.53 945.184 464.121 943.092C464.711 941 466.154 939.215 468.133 938.129Z" fill="#C0E5E5"/>
<path d="M782.377 948.462L728.832 863.394L780.212 776.354L884.773 774.969L884.801 777.339L781.674 778.697L731.7 863.34L784.515 947.237L782.377 948.462Z" fill="#81CCCB"/>
<path d="M774.813 947.957C774.774 946.337 775.244 944.743 776.164 943.376C777.084 942.01 778.412 940.933 779.979 940.282C781.546 939.632 783.281 939.437 784.965 939.723C786.65 940.008 788.206 940.761 789.438 941.886C790.669 943.011 791.52 944.458 791.882 946.041C792.244 947.625 792.102 949.275 791.472 950.782C790.842 952.288 789.753 953.584 788.344 954.503C786.935 955.423 785.269 955.926 783.559 955.947C781.281 955.983 779.081 955.162 777.442 953.664C775.802 952.166 774.857 950.114 774.813 947.957Z" fill="#C0E5E5"/>
<path d="M876.168 776.275C876.129 774.654 876.599 773.058 877.52 771.691C878.441 770.324 879.77 769.247 881.339 768.597C882.908 767.947 884.645 767.754 886.33 768.042C888.016 768.33 889.572 769.085 890.803 770.213C892.033 771.341 892.881 772.789 893.24 774.375C893.599 775.96 893.452 777.612 892.818 779.118C892.184 780.624 891.091 781.918 889.678 782.834C888.266 783.751 886.597 784.249 884.885 784.265C882.612 784.294 880.42 783.469 878.787 781.972C877.153 780.475 876.212 778.427 876.168 776.275Z" fill="#C0E5E5"/>
<path d="M476.12 95.5362L423.221 10.121L425.358 8.94915L477.554 93.1924L579.949 92.4999L630.88 7.59082L633.045 8.73608L581.412 94.8437L476.12 95.5362Z" fill="#81CCCB"/>
<path d="M636.336 15.2084C634.864 16.0291 633.168 16.4176 631.462 16.3252C629.757 16.2329 628.119 15.6634 626.756 14.6892C625.392 13.715 624.365 12.3797 623.803 10.8521C623.241 9.32462 623.17 7.67368 623.599 6.10797C624.028 4.54225 624.938 3.13222 626.213 2.0563C627.489 0.980376 629.072 0.286929 630.764 0.0636257C632.456 -0.159677 634.179 0.0973591 635.717 0.801977C637.254 1.5066 638.536 2.62706 639.401 4.02198C640.552 5.89234 640.876 8.11789 640.302 10.2133C639.727 12.3087 638.302 14.1042 636.336 15.2084Z" fill="#C0E5E5"/>
<path d="M428.648 16.5666C427.18 17.3819 425.49 17.7669 423.791 17.6727C422.093 17.5785 420.461 17.0093 419.104 16.0373C417.747 15.0653 416.724 13.7342 416.165 12.2119C415.607 10.6896 415.538 9.04467 415.966 7.48498C416.394 5.92529 417.302 4.52079 418.573 3.44924C419.844 2.37769 421.421 1.68707 423.107 1.4647C424.792 1.24233 426.51 1.49806 428.042 2.1998C429.574 2.90153 430.851 4.01772 431.714 5.40712C432.863 7.27342 433.186 9.49469 432.612 11.5857C432.037 13.6768 430.612 15.4674 428.648 16.5666Z" fill="#C0E5E5"/>
<path d="M268.067 264.848H163.506V262.478H266.633L317.844 178.474L266.267 93.9114L268.433 92.7129L320.713 178.474L268.067 264.848Z" fill="#81CCCB"/>
<path d="M275.969 93.2996C275.975 94.9179 275.474 96.5016 274.528 97.8497C273.583 99.1978 272.236 100.25 270.659 100.873C269.082 101.496 267.345 101.661 265.669 101.349C263.992 101.036 262.451 100.26 261.241 99.1173C260.031 97.9749 259.206 96.5182 258.87 94.9314C258.535 93.3446 258.704 91.6991 259.357 90.2035C260.009 88.7078 261.116 87.4292 262.536 86.5296C263.957 85.63 265.627 85.1495 267.336 85.1495C268.468 85.146 269.59 85.3543 270.638 85.7623C271.685 86.1703 272.637 86.7703 273.439 87.5274C274.241 88.2845 274.878 89.184 275.312 90.1745C275.746 91.1651 275.969 92.2271 275.969 93.2996Z" fill="#C0E5E5"/>
<path d="M172.112 263.757C172.117 265.376 171.615 266.961 170.669 268.309C169.722 269.658 168.374 270.71 166.795 271.332C165.216 271.954 163.478 272.119 161.801 271.804C160.123 271.489 158.582 270.71 157.373 269.565C156.164 268.42 155.341 266.96 155.009 265.372C154.677 263.783 154.85 262.137 155.507 260.642C156.164 259.147 157.275 257.87 158.699 256.974C160.123 256.077 161.796 255.601 163.506 255.606C165.788 255.606 167.977 256.465 169.591 257.994C171.205 259.522 172.112 261.595 172.112 263.757Z" fill="#C0E5E5"/>
<path d="M112.463 691.631L110.326 690.433L162.409 606.163L111.732 521.866L8.60547 521.28L8.63359 518.937L113.194 519.522L165.278 606.163L164.94 606.749L112.463 691.631Z" fill="#81CCCB"/>
<path d="M12.9648 513.078C14.4319 513.894 15.6101 515.104 16.3511 516.555C17.092 518.006 17.3624 519.632 17.1276 521.229C16.8928 522.825 16.1636 524.319 15.0321 525.523C13.9007 526.727 12.4177 527.586 10.7708 527.991C9.12391 528.397 7.38702 528.332 5.7796 527.803C4.17219 527.274 2.76639 526.305 1.74004 525.02C0.713682 523.734 0.112735 522.189 0.0132546 520.581C-0.0862258 518.972 0.320238 517.371 1.18115 515.981C2.34175 514.121 4.23251 512.771 6.44045 512.227C8.64839 511.683 10.9942 511.989 12.9648 513.078Z" fill="#C0E5E5"/>
<path d="M115.754 683.988C117.232 684.801 118.421 686.012 119.172 687.466C119.923 688.92 120.201 690.553 119.971 692.157C119.741 693.761 119.014 695.264 117.881 696.476C116.748 697.688 115.261 698.555 113.608 698.966C111.955 699.377 110.21 699.314 108.595 698.785C106.979 698.256 105.566 697.285 104.534 695.995C103.502 694.705 102.897 693.153 102.797 691.537C102.697 689.921 103.105 688.314 103.971 686.918C105.126 685.053 107.015 683.698 109.224 683.149C111.432 682.6 113.78 682.902 115.754 683.988Z" fill="#C0E5E5"/>
<g opacity="0.6">
<path d="M1067.51 434.507C1067.51 431.843 1033.15 401.427 992.68 400.895H991.443C951.705 401.454 917.901 431.79 917.929 434.507C917.958 437.223 949.624 467.426 991.049 468.092H992.849C1035.26 467.453 1067.49 437.383 1067.51 434.507ZM992.568 463.031C986.604 463.031 980.774 461.357 975.815 458.218C970.857 455.08 966.993 450.619 964.712 445.4C962.431 440.181 961.836 434.439 963.002 428.9C964.167 423.361 967.041 418.273 971.26 414.281C975.479 410.289 980.853 407.572 986.703 406.474C992.553 405.375 998.616 405.944 1004.12 408.109C1009.63 410.274 1014.34 413.938 1017.65 418.637C1020.96 423.336 1022.72 428.858 1022.72 434.507C1022.71 442.074 1019.53 449.33 1013.88 454.678C1008.22 460.027 1000.56 463.031 992.568 463.031Z" fill="#CDEAEA"/>
<g style="mix-blend-mode:screen">
<path d="M992.568 412.001C987.868 412.001 983.273 413.321 979.365 415.794C975.457 418.267 972.411 421.782 970.613 425.894C968.814 430.006 968.344 434.532 969.261 438.897C970.178 443.263 972.441 447.273 975.764 450.421C979.088 453.568 983.322 455.711 987.932 456.58C992.542 457.448 997.319 457.002 1001.66 455.299C1006 453.596 1009.72 450.711 1012.33 447.01C1014.94 443.309 1016.33 438.958 1016.33 434.507C1016.34 431.55 1015.72 428.622 1014.53 425.89C1013.34 423.158 1011.59 420.675 1009.38 418.585C1007.17 416.494 1004.55 414.837 1001.67 413.707C998.782 412.577 995.69 411.997 992.568 412.001ZM981.319 450.46C980.433 450.46 979.568 450.211 978.832 449.745C978.096 449.278 977.522 448.615 977.185 447.84C976.847 447.064 976.761 446.212 976.935 445.39C977.11 444.568 977.539 443.813 978.167 443.222C978.795 442.631 979.595 442.229 980.464 442.069C981.333 441.909 982.233 441.996 983.05 442.321C983.866 442.645 984.562 443.192 985.05 443.892C985.538 444.592 985.796 445.414 985.79 446.252C985.783 447.371 985.309 448.441 984.471 449.229C983.633 450.018 982.5 450.46 981.319 450.46ZM1001.6 434.48C999.926 434.48 998.295 434.011 996.908 433.133C995.52 432.255 994.439 431.008 993.801 429.547C993.162 428.087 992.995 426.481 993.32 424.931C993.646 423.381 994.449 421.957 995.629 420.84C996.809 419.722 998.313 418.961 999.949 418.653C1001.59 418.345 1003.28 418.503 1004.82 419.108C1006.37 419.713 1007.68 420.737 1008.61 422.051C1009.54 423.365 1010.03 424.909 1010.03 426.49C1010.04 427.541 1009.82 428.583 1009.4 429.556C1008.98 430.528 1008.35 431.412 1007.57 432.157C1006.79 432.902 1005.86 433.493 1004.83 433.896C1003.8 434.299 1002.71 434.507 1001.6 434.507V434.48Z" fill="white"/>
</g>
</g>
<path d="M726.807 220.397C726.873 218.364 726.119 216.384 724.697 214.86C723.276 213.336 721.295 212.382 719.157 212.193C714.376 212.193 701.412 212.193 701.412 212.193V222.421H716.345V307.649H650.65V222.421H665.583V212.193C665.583 212.193 652.647 212.193 647.866 212.193C645.728 212.382 643.747 213.336 642.326 214.86C640.904 216.384 640.15 218.364 640.216 220.397C640.076 224.338 640.216 307.543 640.216 311.378C640.244 312.28 640.464 313.167 640.864 313.986C641.263 314.805 641.834 315.539 642.54 316.143C643.247 316.748 644.076 317.211 644.976 317.504C645.877 317.798 646.831 317.916 647.781 317.85C649.694 317.85 679.898 317.85 683.329 317.85H683.666C687.097 317.85 717.414 317.85 719.242 317.85C720.192 317.916 721.146 317.798 722.046 317.504C722.947 317.211 723.776 316.748 724.483 316.143C725.189 315.539 725.76 314.805 726.159 313.986C726.559 313.167 726.779 312.28 726.807 311.378C726.807 307.543 726.919 224.338 726.807 220.397Z" fill="#CDEAEA"/>
<path d="M693.116 211.262L690.303 206.707H676.973L674.161 211.262H669.324V221.143H698.29V211.262H693.116ZM682.232 208.172H685.044V210.276H682.232V208.172Z" fill="#CDEAEA"/>
<path d="M689.685 238.614H655.15V242.529H689.685V238.614Z" fill="#CDEAEA"/>
<path d="M710.383 232.488H655.15V236.403H710.383V232.488Z" fill="#CDEAEA"/>
<path d="M710.383 226.336H655.15V230.251H710.383V226.336Z" fill="#CDEAEA"/>
<path d="M545.414 347.361C545.42 350.633 544.4 353.834 542.484 356.557C540.569 359.28 537.843 361.405 534.652 362.66C531.462 363.916 527.95 364.248 524.56 363.613C521.171 362.978 518.056 361.404 515.611 359.092C513.165 356.78 511.499 353.833 510.823 350.624C510.147 347.415 510.491 344.088 511.812 341.064C513.133 338.04 515.372 335.456 518.244 333.637C521.117 331.819 524.495 330.848 527.95 330.848C532.577 330.848 537.014 332.587 540.289 335.683C543.563 338.779 545.407 342.979 545.414 347.361Z" fill="#CDEAEA"/>
<path d="M493.19 309.94C493.19 312.095 492.516 314.201 491.252 315.992C489.988 317.784 488.192 319.18 486.09 320.004C483.988 320.829 481.675 321.045 479.444 320.624C477.213 320.204 475.164 319.166 473.555 317.643C471.946 316.119 470.851 314.178 470.407 312.065C469.963 309.952 470.191 307.762 471.061 305.771C471.932 303.781 473.406 302.08 475.297 300.883C477.189 299.686 479.413 299.047 481.688 299.047C484.739 299.047 487.665 300.194 489.822 302.237C491.979 304.28 493.19 307.051 493.19 309.94Z" fill="#CDEAEA"/>
<path d="M568.223 303.708C568.223 305.383 567.698 307.021 566.715 308.414C565.732 309.806 564.336 310.892 562.702 311.533C561.068 312.174 559.269 312.342 557.534 312.015C555.8 311.688 554.206 310.882 552.956 309.697C551.705 308.513 550.853 307.003 550.508 305.36C550.163 303.717 550.34 302.015 551.017 300.467C551.693 298.919 552.84 297.597 554.311 296.666C555.782 295.735 557.51 295.238 559.279 295.238C561.651 295.238 563.926 296.131 565.603 297.719C567.28 299.307 568.223 301.462 568.223 303.708Z" fill="#CDEAEA"/>
<path d="M581.693 367.043C581.693 368.718 581.168 370.356 580.186 371.748C579.203 373.141 577.807 374.227 576.173 374.868C574.539 375.509 572.74 375.677 571.005 375.35C569.271 375.023 567.677 374.216 566.426 373.032C565.176 371.847 564.324 370.338 563.979 368.695C563.634 367.052 563.811 365.349 564.488 363.802C565.164 362.254 566.311 360.932 567.782 360.001C569.252 359.07 570.981 358.573 572.75 358.573C575.12 358.58 577.39 359.475 579.065 361.062C580.741 362.649 581.685 364.799 581.693 367.043Z" fill="#CDEAEA"/>
<path d="M517.46 391.254C517.46 392.929 516.936 394.567 515.953 395.959C514.971 397.352 513.574 398.438 511.94 399.079C510.305 399.72 508.507 399.888 506.772 399.561C505.037 399.234 503.444 398.427 502.193 397.243C500.943 396.059 500.091 394.549 499.746 392.906C499.401 391.263 499.578 389.56 500.255 388.013C500.932 386.465 502.078 385.142 503.549 384.212C505.019 383.281 506.748 382.784 508.517 382.784C510.889 382.784 513.164 383.677 514.841 385.265C516.518 386.854 517.46 389.008 517.46 391.254Z" fill="#CDEAEA"/>
<path d="M525.345 352.809L523.256 352.093L508.852 389.756L510.941 390.473L525.345 352.809Z" fill="#CDEAEA"/>
<path d="M535.436 346.548L534.366 348.392L571.435 367.683L572.505 365.839L535.436 346.548Z" fill="#CDEAEA"/>
<path d="M518.229 341.437L519.677 339.841L487.601 313.73L486.152 315.326L518.229 341.437Z" fill="#CDEAEA"/>
<path d="M556.891 308.994L555.079 307.777L530.619 340.457L532.432 341.674L556.891 308.994Z" fill="#CDEAEA"/>
<g style="mix-blend-mode:screen">
<path d="M232.154 490.545V488.495C232.146 487.684 231.803 486.909 231.198 486.336C230.593 485.764 229.775 485.439 228.92 485.432L204.818 485.725C204.39 485.725 203.966 485.805 203.57 485.96C203.174 486.115 202.814 486.343 202.512 486.63C202.209 486.917 201.969 487.257 201.805 487.632C201.641 488.007 201.556 488.408 201.556 488.814V490.838C201.556 490.838 201.556 490.838 201.556 490.998L232.098 490.838C232.132 490.744 232.151 490.645 232.154 490.545Z" fill="#CDEAEA"/>
</g>
<g style="mix-blend-mode:screen">
<path d="M169.075 547.595H164.378V545.384C164.378 545.384 170.002 545.384 171.605 545.384C172.365 545.225 173.884 542.375 173.94 541.309C173.94 540.777 173.94 535.983 173.94 531.322C173.94 525.995 173.94 519.949 173.94 518.271C173.94 514.915 177.624 510.867 179.93 510.76C181.786 510.76 184.401 510.76 185.92 510.76V496.857C185.92 494.194 190.785 490.066 193.457 489.933C195.482 489.933 244.303 489.933 246.384 489.933V492.116C228.807 492.116 195.144 492.116 193.569 492.116C191.995 492.116 188.226 495.419 188.226 496.857V513.024H187.017C187.017 513.024 182.63 513.024 180.042 513.024C179.017 513.572 178.14 514.339 177.481 515.264C176.822 516.188 176.399 517.245 176.246 518.351C176.246 520.029 176.246 525.968 176.246 531.375C176.246 536.782 176.246 540.883 176.246 541.469C176.246 542.694 174.418 547.462 171.746 547.622L169.075 547.595Z" fill="#CDEAEA"/>
</g>
<g style="mix-blend-mode:screen">
<path d="M154.029 552.256C152.72 552.261 151.44 551.899 150.349 551.214C149.259 550.53 148.407 549.554 147.903 548.411C147.398 547.268 147.263 546.008 147.515 544.793C147.767 543.577 148.394 542.459 149.317 541.581C150.241 540.703 151.418 540.104 152.701 539.86C153.983 539.617 155.314 539.739 156.523 540.212C157.733 540.685 158.766 541.487 159.493 542.517C160.221 543.547 160.61 544.758 160.61 545.997C160.61 547.653 159.917 549.241 158.684 550.414C157.45 551.587 155.776 552.249 154.029 552.256ZM154.029 542.615C153.314 542.609 152.614 542.805 152.018 543.178C151.422 543.551 150.956 544.083 150.68 544.707C150.404 545.331 150.331 546.019 150.469 546.683C150.607 547.346 150.95 547.956 151.455 548.434C151.96 548.913 152.604 549.238 153.305 549.369C154.006 549.499 154.732 549.43 155.391 549.168C156.05 548.907 156.612 548.466 157.005 547.901C157.399 547.336 157.606 546.674 157.6 545.997C157.6 545.1 157.224 544.24 156.554 543.606C155.884 542.971 154.976 542.615 154.029 542.615Z" fill="#CDEAEA"/>
</g>
<g style="mix-blend-mode:screen">
<path d="M216.377 534.917C214.339 534.922 212.345 534.354 210.648 533.285C208.951 532.216 207.627 530.694 206.845 528.912C206.062 527.13 205.856 525.167 206.253 523.274C206.649 521.381 207.63 519.641 209.071 518.276C210.512 516.911 212.349 515.982 214.348 515.607C216.347 515.232 218.419 515.427 220.301 516.168C222.183 516.909 223.79 518.163 224.919 519.77C226.048 521.377 226.648 523.265 226.642 525.196C226.635 527.772 225.551 530.24 223.627 532.062C221.704 533.884 219.097 534.91 216.377 534.917ZM216.377 521.999C215.709 521.994 215.053 522.177 214.494 522.525C213.936 522.873 213.499 523.371 213.239 523.954C212.98 524.538 212.909 525.181 213.036 525.803C213.163 526.424 213.482 526.996 213.953 527.446C214.424 527.896 215.025 528.203 215.68 528.328C216.336 528.454 217.016 528.392 217.634 528.151C218.252 527.91 218.781 527.5 219.153 526.974C219.525 526.448 219.724 525.829 219.724 525.196C219.695 524.371 219.33 523.589 218.706 523.014C218.083 522.438 217.248 522.113 216.377 522.106V521.999Z" fill="#CDEAEA"/>
</g>
<g style="mix-blend-mode:screen">
<path d="M216.377 552.816C210.601 552.821 204.953 551.203 200.148 548.167C195.343 545.132 191.598 540.814 189.385 535.761C187.172 530.709 186.591 525.148 187.717 519.783C188.842 514.417 191.623 509.489 195.707 505.621C199.792 501.753 204.995 499.119 210.661 498.053C216.326 496.988 222.198 497.537 227.533 499.633C232.868 501.729 237.427 505.276 240.632 509.827C243.838 514.377 245.546 519.726 245.54 525.196C245.525 532.517 242.448 539.534 236.982 544.71C231.516 549.887 224.107 552.802 216.377 552.816ZM216.377 499.734C211.058 499.729 205.857 501.218 201.432 504.012C197.007 506.807 193.557 510.782 191.518 515.434C189.479 520.086 188.942 525.206 189.976 530.147C191.011 535.088 193.569 539.627 197.328 543.191C201.087 546.755 205.877 549.182 211.093 550.167C216.309 551.151 221.716 550.649 226.631 548.723C231.545 546.796 235.746 543.533 238.701 539.345C241.657 535.157 243.234 530.233 243.234 525.196C243.227 518.45 240.396 511.982 235.361 507.209C230.327 502.436 223.5 499.748 216.377 499.734Z" fill="#CDEAEA"/>
</g>
<g style="mix-blend-mode:screen">
<path d="M216.377 556.731C209.806 556.736 203.381 554.895 197.914 551.441C192.448 547.986 188.187 543.074 185.67 537.326C183.152 531.577 182.492 525.25 183.773 519.146C185.054 513.042 188.217 507.435 192.864 503.034C197.511 498.634 203.431 495.637 209.877 494.424C216.322 493.212 223.002 493.837 229.072 496.221C235.142 498.605 240.329 502.641 243.977 507.817C247.624 512.994 249.568 519.079 249.562 525.303C249.548 533.633 246.046 541.619 239.826 547.51C233.606 553.401 225.174 556.717 216.377 556.731ZM216.377 496.032C210.259 496.032 204.278 497.75 199.191 500.969C194.103 504.189 190.138 508.764 187.797 514.118C185.455 519.471 184.843 525.362 186.036 531.045C187.23 536.728 190.176 541.948 194.503 546.046C198.829 550.143 204.341 552.933 210.342 554.064C216.343 555.194 222.563 554.614 228.216 552.397C233.868 550.179 238.7 546.424 242.099 541.606C245.498 536.788 247.312 531.124 247.312 525.329C247.327 521.473 246.538 517.652 244.99 514.085C243.442 510.518 241.166 507.276 238.292 504.544C235.418 501.812 232.002 499.645 228.242 498.166C224.481 496.687 220.449 495.925 216.377 495.925V496.032Z" fill="#CDEAEA"/>
</g>
<g style="mix-blend-mode:screen">
<path d="M154.028 557.263C151.674 557.268 149.372 556.612 147.412 555.377C145.452 554.142 143.923 552.385 143.018 550.327C142.114 548.268 141.874 546.002 142.33 543.815C142.785 541.628 143.916 539.618 145.579 538.04C147.241 536.462 149.361 535.386 151.669 534.949C153.978 534.512 156.371 534.734 158.546 535.585C160.722 536.437 162.581 537.881 163.89 539.735C165.198 541.588 165.897 543.767 165.897 545.997C165.889 548.978 164.637 551.835 162.414 553.946C160.191 556.056 157.176 557.249 154.028 557.263ZM154.028 537.607C152.274 537.612 150.561 538.109 149.105 539.035C147.648 539.96 146.514 541.273 145.844 542.809C145.174 544.344 144.999 546.033 145.34 547.662C145.682 549.292 146.525 550.789 147.763 551.965C149.001 553.142 150.58 553.945 152.299 554.273C154.018 554.602 155.802 554.441 157.425 553.812C159.049 553.182 160.439 552.111 161.421 550.735C162.403 549.358 162.932 547.738 162.944 546.077C162.955 544.964 162.732 543.86 162.288 542.829C161.844 541.798 161.189 540.862 160.359 540.073C159.529 539.285 158.542 538.661 157.456 538.238C156.369 537.814 155.204 537.6 154.028 537.607Z" fill="#CDEAEA"/>
</g>
<g style="mix-blend-mode:screen">
<path d="M195.594 543.147L197.225 544.719L211.484 531.402C210.969 530.85 210.525 530.242 210.162 529.591L195.594 543.147Z" fill="#CDEAEA"/>
</g>
<g style="mix-blend-mode:screen">
<path d="M222.002 521.467L223.07 520.482C222.921 519.68 222.636 518.907 222.226 518.191L220.371 519.923C220.969 520.383 221.515 520.901 222.002 521.467Z" fill="#CDEAEA"/>
</g>
<g style="mix-blend-mode:screen">
<path d="M237.104 507.458L235.501 505.913L222.339 518.191C222.748 518.907 223.033 519.68 223.183 520.482L237.104 507.458Z" fill="#CDEAEA"/>
</g>
<g style="mix-blend-mode:screen">
<path d="M188.254 524.023V526.208H208.728C208.535 525.489 208.394 524.76 208.306 524.023H188.254Z" fill="#CDEAEA"/>
</g>
<g style="mix-blend-mode:screen">
<path d="M244.5 524.423L222.986 524.264C222.752 525.027 222.422 525.76 222.001 526.448L244.5 526.607V524.423Z" fill="#CDEAEA"/>
</g>
<g style="mix-blend-mode:screen">
<path d="M197.507 505.646L195.875 507.191L209.656 520.508C210.387 520.162 211.146 519.816 211.878 519.523L197.507 505.646Z" fill="#CDEAEA"/>
</g>
<g style="mix-blend-mode:screen">
<path d="M236.822 543.414L220.764 527.966C220.266 528.522 219.731 529.047 219.161 529.537L235.191 544.932L236.822 543.414Z" fill="#CDEAEA"/>
</g>
<g style="mix-blend-mode:screen">
<path d="M214.999 551.83H217.305L217.474 530.522C216.748 530.933 215.961 531.239 215.14 531.428L214.999 551.83Z" fill="#CDEAEA"/>
</g>
<g style="mix-blend-mode:screen">
<path d="M217.558 518.564V498.802H215.252L215.112 518.511C215.923 518.378 216.754 518.397 217.558 518.564Z" fill="#CDEAEA"/>
</g>
<g style="mix-blend-mode:screen">
<path d="M248.466 518.084L245.007 513.69C245.007 513.344 245.007 479.465 245.007 477.308C244.909 475.414 245.526 473.549 246.747 472.046C247.968 470.543 249.714 469.5 251.672 469.104C254.203 469.104 257.493 469.104 257.634 469.104L257.465 472.38C257.465 472.38 254.203 472.38 251.84 472.38C250.777 472.721 249.866 473.389 249.249 474.277C248.633 475.164 248.347 476.222 248.438 477.281C248.494 479.492 248.466 516.593 248.466 518.084Z" fill="#CDEAEA"/>
</g>
<g style="mix-blend-mode:screen">
<path d="M274.338 474.991H258.843C258.416 474.991 257.993 474.91 257.599 474.755C257.204 474.599 256.847 474.371 256.546 474.084C256.245 473.797 256.008 473.456 255.847 473.081C255.686 472.706 255.605 472.305 255.609 471.901V469.85C255.609 469.038 255.95 468.259 256.556 467.684C257.163 467.11 257.985 466.787 258.843 466.787H274.338C275.199 466.787 276.024 467.109 276.635 467.682C277.246 468.256 277.593 469.035 277.601 469.85V471.901C277.601 472.72 277.257 473.506 276.645 474.085C276.034 474.665 275.204 474.991 274.338 474.991Z" fill="#CDEAEA"/>
</g>
<g style="mix-blend-mode:screen">
<path d="M421.365 256.646H377.802C373.303 256.646 371.868 257.738 371.868 259.043V260.614C371.868 261.919 373.303 262.985 377.802 262.985H395.238C395.068 263.474 394.982 263.987 394.985 264.503C394.998 265.438 395.263 266.355 395.755 267.166C396.248 267.977 396.951 268.656 397.798 269.137C396.604 273.908 394.06 278.28 390.439 281.785C386.818 285.289 382.257 287.793 377.246 289.027C372.236 290.261 366.965 290.178 362 288.788C357.036 287.398 352.565 284.753 349.068 281.137C345.572 277.522 343.182 273.072 342.155 268.266C341.128 263.46 341.503 258.481 343.24 253.862C344.977 249.243 348.01 245.16 352.014 242.051C356.017 238.942 360.84 236.926 365.962 236.218C366.467 236.793 367.099 237.255 367.813 237.573C368.528 237.891 369.307 238.055 370.097 238.055C371.153 238.038 372.183 237.738 373.069 237.192C373.954 236.646 374.659 235.874 375.102 234.966L378.702 239.653L386.38 240.905L385.395 241.651C385.207 241.76 385.044 241.903 384.915 242.072C384.786 242.242 384.694 242.433 384.645 242.637C384.595 242.84 384.588 243.051 384.626 243.256C384.663 243.462 384.743 243.659 384.861 243.835L385.48 244.581C385.795 244.873 386.219 245.037 386.661 245.037C387.103 245.037 387.527 244.873 387.842 244.581L394.788 239.547C395.159 239.313 395.42 238.951 395.514 238.539C395.609 238.126 395.53 237.695 395.295 237.336L394.676 236.59C394.522 236.442 394.338 236.325 394.135 236.244C393.932 236.164 393.714 236.123 393.495 236.123C393.275 236.123 393.057 236.164 392.854 236.244C392.652 236.325 392.468 236.442 392.314 236.59L390.654 237.789L391.301 237.309L392.314 230.198L373.077 205.269L365.822 204.044L367.931 202.499C369.056 201.673 369.506 200.448 368.944 199.835L368.24 198.983C367.678 198.291 366.3 198.371 365.175 199.17L355.473 206.228C354.348 207.053 353.898 208.278 354.46 208.891L355.163 209.743C355.726 210.436 357.104 210.356 358.229 209.557L360.394 207.959L359.382 214.75L369.534 227.908C368.335 228.03 367.214 228.525 366.344 229.316C365.474 230.106 364.905 231.147 364.725 232.276C357.414 233.414 350.721 236.853 345.726 242.036C340.731 247.22 337.727 253.846 337.197 260.845C336.667 267.845 338.643 274.809 342.806 280.614C346.969 286.419 353.076 290.727 360.141 292.841V319.688H339.386V328.211H403.9V319.688H382.021V292.122C387.047 290.268 391.518 287.277 395.043 283.409C398.567 279.542 401.039 274.916 402.241 269.936C403.508 269.65 404.637 268.97 405.448 268.004C406.259 267.038 406.704 265.843 406.713 264.609C406.716 264.093 406.63 263.581 406.459 263.091H421.505C426.005 263.091 427.439 262.026 427.439 260.721V259.149C427.299 257.738 425.864 256.646 421.365 256.646ZM370.406 206.281L370.772 206.014C371.109 205.801 372.656 207.293 374.231 209.37L387.983 227.242C389.558 229.319 390.57 231.184 390.261 231.397L389.867 231.663C389.557 231.876 388.011 230.384 386.408 228.307L372.684 210.436C371.053 208.358 370.068 206.494 370.406 206.281Z" fill="#CDEAEA"/>
</g>
<g style="mix-blend-mode:screen">
<path d="M738.394 766.766C736.282 766.773 734.259 767.568 732.764 768.979C731.268 770.391 730.421 772.304 730.406 774.303L711.283 775.555C711.153 772.778 710.565 770.037 709.54 767.432L717.695 763.57C718.031 763.97 718.459 764.293 718.946 764.515C719.433 764.736 719.967 764.85 720.507 764.848C721.225 764.848 721.926 764.647 722.523 764.269C723.12 763.892 723.585 763.355 723.859 762.727C724.134 762.099 724.205 761.409 724.065 760.742C723.925 760.076 723.58 759.463 723.072 758.983C722.565 758.502 721.919 758.175 721.215 758.043C720.511 757.91 719.782 757.978 719.119 758.238C718.456 758.498 717.89 758.938 717.491 759.503C717.092 760.069 716.879 760.733 716.879 761.412C716.879 761.412 716.879 761.572 716.879 761.652L708.724 765.541C707.407 762.881 705.64 760.443 703.493 758.323L714.208 749.587C715.484 750.602 717.097 751.158 718.763 751.158C720.187 751.158 721.579 750.758 722.763 750.009C723.947 749.26 724.87 748.195 725.415 746.949C725.96 745.703 726.103 744.332 725.825 743.01C725.547 741.687 724.861 740.472 723.854 739.519C722.847 738.565 721.565 737.916 720.168 737.653C718.771 737.39 717.324 737.525 716.009 738.041C714.693 738.557 713.569 739.431 712.778 740.552C711.986 741.673 711.564 742.991 711.564 744.34C711.568 745.673 711.978 746.977 712.745 748.095L701.946 756.911C700.279 755.491 698.438 754.265 696.462 753.262L706.108 728.066C706.624 728.183 707.152 728.245 707.683 728.253C709.453 728.273 711.17 727.682 712.513 726.59C713.856 725.498 714.733 723.98 714.981 722.32C715.228 720.66 714.829 718.972 713.858 717.571C712.887 716.169 711.411 715.15 709.704 714.705C707.998 714.26 706.179 714.418 704.586 715.15C702.994 715.883 701.738 717.139 701.053 718.685C700.368 720.231 700.3 721.96 700.863 723.549C701.426 725.138 702.581 726.479 704.111 727.321L694.522 752.383C691.29 751.035 687.815 750.284 684.285 750.173V735.391C685.407 735.142 686.394 734.512 687.057 733.62C687.72 732.727 688.014 731.635 687.882 730.55C687.75 729.466 687.201 728.466 686.341 727.739C685.481 727.013 684.369 726.612 683.216 726.612C682.064 726.612 680.952 727.013 680.092 727.739C679.231 728.466 678.683 729.466 678.551 730.55C678.419 731.635 678.712 732.727 679.375 733.62C680.039 734.512 681.026 735.142 682.148 735.391V750.173C677.663 750.312 673.281 751.482 669.38 753.582L655.628 735.657C657.031 734.495 657.959 732.902 658.249 731.158C658.539 729.414 658.174 727.628 657.216 726.113C656.259 724.598 654.77 723.45 653.01 722.868C651.249 722.286 649.329 722.308 647.584 722.93C645.839 723.552 644.38 724.734 643.462 726.271C642.543 727.807 642.223 729.601 642.558 731.338C642.893 733.075 643.861 734.646 645.294 735.776C646.726 736.906 648.533 737.524 650.397 737.522C651.586 737.524 652.759 737.269 653.828 736.776L667.523 754.647C664.974 756.29 662.723 758.314 660.859 760.64L652.872 755.127C653.14 754.641 653.284 754.103 653.294 753.555C653.294 752.876 653.081 752.212 652.682 751.647C652.283 751.082 651.717 750.641 651.054 750.381C650.391 750.121 649.662 750.053 648.958 750.186C648.254 750.318 647.607 750.645 647.1 751.126C646.593 751.606 646.247 752.219 646.107 752.885C645.967 753.551 646.039 754.242 646.314 754.87C646.589 755.498 647.053 756.035 647.65 756.412C648.247 756.79 648.948 756.991 649.666 756.991C650.244 756.982 650.812 756.845 651.325 756.592L659.762 762.291C658.098 764.749 656.873 767.448 656.134 770.282L640.244 765.887C640.236 764.449 639.66 763.067 638.629 762.011C637.598 760.956 636.187 760.305 634.674 760.185C633.161 760.066 631.656 760.488 630.455 761.367C629.254 762.246 628.444 763.519 628.185 764.936C627.926 766.353 628.236 767.81 629.054 769.02C629.873 770.231 631.141 771.108 632.607 771.478C634.074 771.848 635.635 771.684 636.98 771.019C638.326 770.354 639.36 769.236 639.879 767.884L655.684 772.279C655.392 773.8 655.242 775.341 655.234 776.887C655.237 778.135 655.34 779.382 655.543 780.616L634.592 784.717C633.758 783.273 632.396 782.169 630.761 781.611C629.127 781.053 627.333 781.081 625.719 781.689C624.105 782.297 622.781 783.444 621.998 784.913C621.215 786.382 621.026 788.071 621.468 789.662C621.909 791.254 622.95 792.637 624.394 793.552C625.839 794.466 627.586 794.849 629.308 794.627C631.029 794.405 632.606 793.595 633.74 792.348C634.874 791.102 635.487 789.505 635.464 787.86C635.505 787.453 635.505 787.042 635.464 786.635L656.05 782.613C656.638 785.224 657.652 787.731 659.058 790.044L648.512 795.371C647.893 794.891 647.119 794.628 646.319 794.625C645.601 794.625 644.9 794.826 644.304 795.204C643.707 795.581 643.242 796.118 642.967 796.746C642.693 797.374 642.621 798.065 642.761 798.731C642.901 799.398 643.246 800.01 643.754 800.49C644.261 800.971 644.908 801.298 645.612 801.431C646.315 801.563 647.045 801.495 647.708 801.235C648.371 800.975 648.937 800.534 649.336 799.969C649.734 799.404 649.947 798.74 649.947 798.061C649.938 797.716 649.872 797.374 649.75 797.049L660.156 791.722C661.248 793.257 662.511 794.676 663.924 795.956C655.234 803.654 650.959 807.436 648.878 809.273C648.118 808.802 647.228 808.552 646.319 808.555C645.39 808.555 644.482 808.815 643.71 809.304C642.937 809.793 642.336 810.488 641.98 811.3C641.625 812.113 641.532 813.007 641.713 813.87C641.894 814.733 642.342 815.525 642.998 816.148C643.655 816.77 644.492 817.193 645.403 817.365C646.314 817.536 647.258 817.448 648.116 817.112C648.974 816.775 649.708 816.205 650.224 815.474C650.74 814.742 651.016 813.882 651.016 813.002C651.013 812.212 650.779 811.438 650.341 810.765L665.527 797.288C668.15 799.339 671.141 800.927 674.358 801.976L665.78 820.806C665.22 820.667 664.643 820.595 664.064 820.593C662.316 820.587 660.625 821.183 659.304 822.268C657.984 823.353 657.123 824.854 656.882 826.494C656.641 828.134 657.036 829.802 657.994 831.187C658.951 832.572 660.406 833.582 662.09 834.029C663.773 834.476 665.571 834.329 667.149 833.617C668.728 832.905 669.98 831.675 670.674 830.156C671.368 828.636 671.457 826.929 670.924 825.352C670.391 823.775 669.273 822.434 667.777 821.578L676.439 802.562C678.745 803.128 681.116 803.423 683.498 803.441C685.387 803.446 687.272 803.268 689.122 802.908C689.966 809.354 690.556 813.562 690.95 816.438C688.984 816.894 687.275 818.04 686.167 819.644C685.059 821.248 684.635 823.19 684.981 825.079C685.328 826.967 686.417 828.661 688.031 829.817C689.645 830.974 691.663 831.507 693.676 831.309C695.689 831.111 697.548 830.196 698.876 828.75C700.205 827.304 700.903 825.434 700.832 823.519C700.761 821.604 699.925 819.785 698.492 818.431C697.06 817.077 695.138 816.289 693.116 816.225C692.553 812.363 691.822 806.956 691.232 802.402C693.044 801.933 694.797 801.281 696.462 800.458L708.892 823.869C708.018 824.513 707.415 825.43 707.189 826.457C706.964 827.484 707.131 828.553 707.661 829.474C708.191 830.395 709.049 831.107 710.083 831.484C711.116 831.861 712.257 831.877 713.302 831.531C714.347 831.184 715.229 830.497 715.788 829.593C716.348 828.688 716.55 827.624 716.358 826.591C716.166 825.558 715.592 824.624 714.74 823.954C713.887 823.285 712.812 822.924 711.704 822.937C711.414 822.909 711.123 822.909 710.833 822.937L698.29 799.339C701.025 797.755 703.45 795.737 705.461 793.373L725.963 809.353C725.56 809.999 725.346 810.735 725.344 811.484C725.339 812.372 725.612 813.24 726.129 813.98C726.646 814.72 727.383 815.298 728.248 815.64C729.112 815.982 730.065 816.073 730.984 815.901C731.903 815.729 732.747 815.302 733.41 814.675C734.072 814.047 734.522 813.248 734.704 812.377C734.885 811.507 734.79 810.605 734.429 809.786C734.067 808.967 733.458 808.269 732.676 807.779C731.895 807.29 730.977 807.031 730.041 807.036C729.093 807.036 728.169 807.315 727.397 807.835L706.755 791.615C707.555 790.493 708.268 789.318 708.892 788.1L723.573 794.678C723.544 794.944 723.544 795.212 723.573 795.477C723.586 796.273 723.886 797.041 724.423 797.653C724.96 798.265 725.703 798.685 726.527 798.843C727.35 799 728.206 798.887 728.952 798.52C729.698 798.154 730.29 797.556 730.628 796.828C730.967 796.099 731.032 795.283 730.813 794.515C730.594 793.746 730.105 793.071 729.425 792.603C728.746 792.134 727.918 791.899 727.079 791.938C726.239 791.976 725.439 792.285 724.81 792.814L709.848 786.129C711.017 783.307 711.663 780.316 711.761 777.286L731.138 776.008C731.531 777.368 732.318 778.596 733.409 779.555C734.5 780.514 735.853 781.165 737.314 781.435C738.776 781.704 740.287 781.582 741.679 781.081C743.071 780.58 744.287 779.72 745.19 778.6C746.093 777.479 746.647 776.141 746.791 774.738C746.934 773.334 746.66 771.921 746 770.657C745.34 769.393 744.32 768.329 743.056 767.585C741.791 766.841 740.332 766.447 738.843 766.446L738.394 766.766ZM665.274 767.938C661.883 774.663 661.241 782.338 663.474 789.485C661.208 786.155 659.895 782.325 659.663 778.371C659.432 774.416 660.289 770.472 662.152 766.926C664.006 763.392 666.924 760.458 670.538 758.496C674.153 756.533 678.3 755.629 682.457 755.899C678.799 756.513 675.34 757.919 672.35 760.007C669.359 762.096 666.919 764.81 665.218 767.938H665.274Z" fill="#CDEAEA"/>
</g>
<g style="mix-blend-mode:screen">
<path d="M404.322 542.641H365.484V546.316H404.322V542.641Z" fill="#CDEAEA"/>
</g>
<g style="mix-blend-mode:screen">
<path d="M400.666 544.479H396.363V592.206H380.783V649.949H376.677V592.153H373.612V544.479H369.562V652.373C369.562 652.373 369.562 652.559 369.562 652.666C369.562 658.525 376.537 663.319 385.142 663.319C393.748 663.319 400.723 658.552 400.723 652.666C400.736 652.569 400.736 652.47 400.723 652.373L400.666 544.479Z" fill="#CDEAEA"/>
</g>
<g style="mix-blend-mode:screen">
<path d="M388.123 569.861C388.117 570.999 387.756 572.109 387.084 573.052C386.412 573.995 385.46 574.728 384.347 575.159C383.235 575.59 382.013 575.698 380.836 575.471C379.659 575.244 378.579 574.691 377.734 573.883C376.888 573.075 376.314 572.047 376.085 570.93C375.856 569.813 375.983 568.657 376.448 567.608C376.912 566.559 377.695 565.664 378.697 565.036C379.699 564.408 380.875 564.076 382.077 564.081C382.875 564.085 383.664 564.237 384.399 564.529C385.135 564.821 385.803 565.248 386.364 565.785C386.925 566.321 387.37 566.958 387.672 567.657C387.973 568.356 388.127 569.105 388.123 569.861Z" fill="#CDEAEA"/>
</g>
<g style="mix-blend-mode:screen">
<path d="M391.245 581.633C391.24 582.459 390.976 583.265 390.487 583.949C389.999 584.633 389.307 585.165 388.5 585.477C387.693 585.79 386.806 585.869 385.951 585.704C385.097 585.54 384.313 585.14 383.698 584.554C383.083 583.968 382.665 583.223 382.497 582.412C382.329 581.602 382.418 580.763 382.753 580C383.088 579.238 383.654 578.586 384.38 578.128C385.105 577.669 385.958 577.425 386.83 577.425C388.003 577.432 389.126 577.878 389.954 578.667C390.781 579.455 391.245 580.521 391.245 581.633Z" fill="#CDEAEA"/>
</g>
<g style="mix-blend-mode:screen">
<path d="M382.583 586.96C382.583 587.556 382.396 588.139 382.045 588.635C381.695 589.13 381.197 589.516 380.615 589.743C380.033 589.97 379.392 590.028 378.775 589.91C378.158 589.791 377.592 589.502 377.148 589.078C376.705 588.655 376.404 588.116 376.285 587.531C376.165 586.945 376.233 586.339 376.478 585.79C376.722 585.24 377.134 584.772 377.66 584.444C378.186 584.117 378.804 583.945 379.433 583.95C380.271 583.957 381.072 584.277 381.662 584.841C382.252 585.405 382.583 586.166 382.583 586.96Z" fill="#CDEAEA"/>
</g>
<g style="mix-blend-mode:screen">
<path d="M366.356 563.016H333.818V566.079H366.356V563.016Z" fill="#CDEAEA"/>
</g>
<g style="mix-blend-mode:screen">
<path d="M363.291 564.534H359.607V604.192H346.558V652.133H343.155V604.192H340.596V564.534H337.305V654.237V654.45C337.305 659.351 343.127 663.293 350.354 663.293C357.582 663.293 363.375 659.351 363.375 654.45V654.237L363.291 564.534Z" fill="#CDEAEA"/>
</g>
<g style="mix-blend-mode:screen">
<path d="M352.801 585.628C352.801 586.582 352.502 587.514 351.943 588.307C351.384 589.099 350.589 589.717 349.659 590.082C348.729 590.447 347.705 590.542 346.718 590.356C345.73 590.17 344.823 589.711 344.111 589.037C343.4 588.363 342.915 587.504 342.718 586.569C342.522 585.634 342.623 584.664 343.008 583.783C343.393 582.903 344.046 582.15 344.883 581.62C345.72 581.09 346.704 580.808 347.711 580.808C349.061 580.808 350.355 581.316 351.31 582.22C352.265 583.124 352.801 584.35 352.801 585.628Z" fill="#CDEAEA"/>
</g>
<g style="mix-blend-mode:screen">
<path d="M355.416 595.43C355.416 596.125 355.198 596.805 354.791 597.383C354.383 597.961 353.803 598.412 353.125 598.678C352.446 598.944 351.7 599.013 350.98 598.878C350.26 598.742 349.598 598.407 349.079 597.916C348.56 597.424 348.206 596.798 348.063 596.116C347.92 595.434 347.993 594.727 348.274 594.085C348.555 593.442 349.031 592.893 349.641 592.507C350.252 592.12 350.97 591.914 351.704 591.914C352.689 591.914 353.633 592.285 354.329 592.944C355.025 593.603 355.416 594.498 355.416 595.43Z" fill="#CDEAEA"/>
</g>
<g style="mix-blend-mode:screen">
<path d="M348.161 599.851C348.133 600.346 347.953 600.823 347.642 601.221C347.331 601.62 346.903 601.924 346.412 602.094C345.92 602.264 345.386 602.294 344.877 602.18C344.368 602.066 343.905 601.812 343.546 601.451C343.188 601.09 342.949 600.637 342.86 600.148C342.771 599.66 342.836 599.157 343.046 598.703C343.256 598.249 343.602 597.863 344.041 597.594C344.481 597.324 344.994 597.183 345.518 597.188C345.879 597.187 346.238 597.257 346.57 597.392C346.902 597.528 347.201 597.727 347.449 597.977C347.697 598.226 347.888 598.521 348.01 598.844C348.133 599.166 348.184 599.509 348.161 599.851Z" fill="#CDEAEA"/>
</g>
<g style="mix-blend-mode:screen">
<path d="M708.33 571.992C708.336 577.182 706.716 582.257 703.676 586.574C700.635 590.892 696.311 594.259 691.25 596.248C686.188 598.238 680.618 598.762 675.242 597.752C669.867 596.743 664.929 594.246 661.052 590.578C657.175 586.911 654.533 582.236 653.462 577.146C652.391 572.057 652.938 566.781 655.034 561.985C657.13 557.19 660.681 553.091 665.237 550.207C669.793 547.324 675.149 545.784 680.629 545.784C687.971 545.784 695.013 548.545 700.207 553.459C705.401 558.373 708.323 565.039 708.33 571.992Z" fill="#CDEAEA"/>
</g>
<g style="mix-blend-mode:screen">
<path d="M680.629 596.682C654.194 596.682 632.82 617.723 632.82 643.664C632.82 645.129 632.82 646.594 633.045 648.059H728.213C728.213 646.594 728.438 645.129 728.438 643.664C728.522 617.616 707.093 596.682 680.629 596.682ZM683.104 643.957H676.439V600.677H683.216L683.104 643.957Z" fill="#CDEAEA"/>
</g>
<g style="mix-blend-mode:screen">
<path d="M700.09 424.972C687.857 408.992 681.36 381.292 680.797 378.815C680.235 381.292 673.739 408.992 661.506 424.972C653.603 435.279 650.256 442.098 650.734 452.112C652.647 484.526 680.404 482.288 680.797 482.688C681.219 482.288 708.752 483.78 710.889 452.112C711.48 442.204 707.936 435.279 700.09 424.972ZM657.231 456.613C657.231 456.613 664.599 482.555 692.441 476.269C677.114 484.339 659.537 476.136 657.203 456.613H657.231Z" fill="#CDEAEA"/>
</g>
<g style="mix-blend-mode:screen">
<path d="M660.718 422.948C651.662 408.778 646.853 388.323 646.403 386.246C646.394 386.184 646.394 386.121 646.403 386.06V386.246C645.897 388.403 640.216 412.667 629.529 426.65C622.639 435.679 620.137 441.644 620.109 450.407C620.109 477.361 646.066 476.828 646.431 477.174C649.671 476.944 652.867 476.318 655.937 475.31C650.167 468.472 647.12 459.93 647.331 451.18C647.477 445.869 648.736 440.638 651.034 435.792C653.332 430.945 656.624 426.579 660.718 422.948Z" fill="#CDEAEA"/>
</g>
<g style="mix-blend-mode:screen">
<path d="M700.68 422.948C709.736 408.778 714.545 388.323 714.995 386.246C714.995 386.246 714.995 386.086 714.995 386.06C715.005 386.121 715.005 386.184 714.995 386.246C715.501 388.403 721.182 412.667 731.869 426.65C738.787 435.679 741.29 441.644 741.29 450.407C741.29 477.361 715.333 476.828 714.967 477.174C711.726 476.949 708.53 476.322 705.461 475.31C711.221 468.469 714.258 459.927 714.039 451.18C713.906 445.869 712.656 440.637 710.362 435.789C708.068 430.942 704.777 426.576 700.68 422.948Z" fill="#CDEAEA"/>
</g>
<g opacity="0.77">
<g style="mix-blend-mode:screen">
<path d="M782.18 317.211C781.592 317.204 781.029 316.985 780.605 316.598C780.195 316.205 779.965 315.674 779.965 315.12C779.965 314.567 780.195 314.036 780.605 313.642L799.42 296.064C799.836 295.675 800.396 295.457 800.981 295.457C801.565 295.457 802.126 295.675 802.541 296.064C802.95 296.453 803.18 296.98 803.18 297.529C803.18 298.078 802.95 298.604 802.541 298.993L783.727 316.598C783.525 316.793 783.285 316.947 783.019 317.052C782.754 317.157 782.468 317.211 782.18 317.211Z" fill="#CDEAEA"/>
</g>
<g style="mix-blend-mode:screen">
<path d="M789.436 321.179L782.068 313.775L799.954 297.049L807.098 304.16L789.436 321.179ZM785.162 313.828L789.465 318.17L804.06 304.134L799.898 300.032L785.162 313.828Z" fill="#CDEAEA"/>
</g>
<g style="mix-blend-mode:screen">
<path d="M849.957 361.183H829.455L785.134 321.232L806.957 301.044L848.635 340.995L849.957 361.183ZM830.889 358.067H846.47L845.513 342.087L806.957 305.305L789.914 321.286L830.889 358.067Z" fill="#CDEAEA"/>
</g>
<g style="mix-blend-mode:screen">
<path d="M814.663 347.174C814.231 347.168 813.819 347.007 813.51 346.722C813.202 346.427 813.03 346.03 813.03 345.616C813.03 345.202 813.202 344.805 813.51 344.511L826.418 331.78C826.567 331.633 826.746 331.516 826.944 331.434C827.141 331.353 827.354 331.309 827.569 331.305C827.785 331.301 827.999 331.338 828.199 331.412C828.4 331.487 828.583 331.598 828.738 331.74C828.893 331.882 829.018 332.051 829.104 332.238C829.19 332.425 829.236 332.626 829.24 332.83C829.243 333.034 829.205 333.237 829.126 333.427C829.047 333.617 828.93 333.79 828.78 333.937L815.872 346.695C815.716 346.85 815.528 346.972 815.32 347.055C815.112 347.137 814.888 347.178 814.663 347.174Z" fill="#CDEAEA"/>
</g>
<g style="mix-blend-mode:screen">
<path d="M821.496 353.061C821.079 353.053 820.679 352.901 820.372 352.634C820.064 352.34 819.892 351.943 819.892 351.529C819.892 351.115 820.064 350.718 820.372 350.424L833.28 337.666C833.425 337.494 833.605 337.352 833.811 337.251C834.017 337.149 834.242 337.089 834.474 337.075C834.706 337.062 834.938 337.094 835.156 337.17C835.374 337.247 835.572 337.366 835.738 337.519C835.904 337.673 836.034 337.858 836.12 338.062C836.206 338.266 836.246 338.485 836.237 338.705C836.228 338.925 836.17 339.14 836.068 339.337C835.965 339.535 835.82 339.709 835.642 339.85L822.762 352.581C822.598 352.74 822.401 352.865 822.183 352.947C821.965 353.03 821.731 353.068 821.496 353.061Z" fill="#CDEAEA"/>
</g>
<g style="mix-blend-mode:screen">
<path d="M828.359 359.027C828.028 359.038 827.701 358.953 827.422 358.784C827.143 358.615 826.926 358.37 826.797 358.081C826.669 357.792 826.637 357.473 826.705 357.166C826.773 356.859 826.937 356.579 827.177 356.363L840.086 343.606C840.23 343.433 840.411 343.292 840.617 343.19C840.822 343.089 841.049 343.029 841.28 343.015C841.512 343.001 841.744 343.034 841.962 343.11C842.179 343.187 842.378 343.305 842.544 343.459C842.71 343.612 842.84 343.797 842.926 344.002C843.012 344.206 843.052 344.425 843.043 344.644C843.034 344.864 842.976 345.079 842.873 345.277C842.771 345.474 842.627 345.649 842.448 345.79L829.54 358.521C829.392 358.679 829.211 358.807 829.007 358.894C828.803 358.981 828.582 359.027 828.359 359.027Z" fill="#CDEAEA"/>
</g>
<g style="mix-blend-mode:screen">
<path d="M872.68 384.488C872.248 384.488 871.833 384.326 871.527 384.036L847.06 360.731C846.88 360.592 846.733 360.419 846.628 360.223C846.522 360.027 846.462 359.812 846.45 359.592C846.438 359.373 846.475 359.153 846.558 358.948C846.642 358.743 846.77 358.556 846.934 358.401C847.098 358.245 847.295 358.124 847.512 358.045C847.729 357.966 847.96 357.931 848.192 357.942C848.424 357.954 848.65 358.011 848.858 358.111C849.065 358.21 849.248 358.35 849.394 358.52L873.861 381.825C874.169 382.119 874.341 382.516 874.341 382.93C874.341 383.344 874.169 383.742 873.861 384.036C873.54 384.32 873.12 384.481 872.68 384.488Z" fill="#CDEAEA"/>
</g>
<g style="mix-blend-mode:screen">
<path d="M880.076 400.575C877.238 396.429 875.201 391.839 874.058 387.019C872.928 391.843 870.889 396.435 868.039 400.575C866.944 401.627 866.081 402.876 865.502 404.248C864.922 405.62 864.638 407.088 864.665 408.565C864.606 409.753 864.807 410.94 865.256 412.05C865.706 413.161 866.394 414.171 867.277 415.017C868.16 415.863 869.218 416.527 870.385 416.966C871.552 417.405 872.803 417.609 874.058 417.568C875.305 417.582 876.543 417.359 877.697 416.91C878.851 416.462 879.897 415.797 880.774 414.957C881.651 414.117 882.34 413.118 882.8 412.019C883.259 410.921 883.481 409.746 883.45 408.565C883.492 407.086 883.214 405.614 882.634 404.24C882.054 402.866 881.183 401.619 880.076 400.575Z" fill="#CDEAEA"/>
</g>
</g>
<g style="mix-blend-mode:screen">
<path d="M411.859 734.086C409.316 731.566 406.261 729.56 402.878 728.187C399.495 726.814 395.854 726.102 392.173 726.096C385.243 726.082 378.574 728.601 373.556 733.127L326.281 775.742C322.358 779.268 319.643 783.828 318.487 788.832C317.33 793.835 317.785 799.053 319.793 803.809C321.801 808.565 325.27 812.641 329.751 815.51C334.232 818.379 339.518 819.908 344.927 819.901C351.859 819.926 358.532 817.405 363.544 812.869L410.819 770.255C416.005 765.581 419.026 759.152 419.221 752.374C419.416 745.596 416.769 739.021 411.859 734.086ZM359.41 808.661C355.358 812.181 350.008 814.054 344.513 813.877C339.017 813.699 333.815 811.485 330.025 807.711C326.236 803.938 324.163 798.906 324.251 793.699C324.34 788.492 326.584 783.526 330.5 779.87L352.464 760.081L354.46 761.972L378.73 740.665C379.328 740.225 380.078 740.013 380.833 740.069C381.587 740.126 382.292 740.448 382.81 740.971C383.327 741.494 383.619 742.182 383.63 742.899C383.64 743.616 383.367 744.31 382.864 744.846C374.231 752.464 364.163 761.279 358.735 766.153L382.077 788.366L359.41 808.661Z" fill="#CDEAEA"/>
</g>
<path opacity="0.75" d="M885.982 486.044H863.849C863.637 480.191 861.033 474.646 856.586 470.577C852.14 466.508 846.198 464.233 840.015 464.233C833.832 464.233 827.89 466.508 823.444 470.577C818.997 474.646 816.393 480.191 816.181 486.044H791.068C788.663 486.051 786.36 486.96 784.662 488.573C782.965 490.185 782.011 492.369 782.011 494.646V557.529C782.011 559.804 782.966 561.985 784.664 563.594C786.362 565.202 788.666 566.105 791.068 566.105H885.982C888.384 566.105 890.687 565.202 892.385 563.594C894.084 561.985 895.038 559.804 895.038 557.529V494.646C895.038 492.369 894.084 490.185 892.387 488.573C890.689 486.96 888.386 486.051 885.982 486.044ZM853.359 532.76H845.485V540.217H831.564V532.76H823.83V519.443H831.705V511.985H845.626V519.443H853.5L853.359 532.76ZM820.118 486.124C820.389 481.303 822.602 476.764 826.301 473.442C830 470.12 834.904 468.268 840.001 468.268C845.099 468.268 850.002 470.12 853.701 473.442C857.4 476.764 859.613 481.303 859.884 486.124H820.118Z" fill="#CDEAEA"/>
<path d="M838.539 502.211C833.533 502.211 828.64 503.617 824.477 506.251C820.315 508.884 817.071 512.628 815.155 517.008C813.239 521.388 812.738 526.208 813.714 530.858C814.691 535.508 817.102 539.779 820.641 543.131C824.181 546.483 828.691 548.766 833.601 549.691C838.511 550.616 843.6 550.142 848.225 548.328C852.849 546.513 856.802 543.441 859.584 539.499C862.365 535.557 863.849 530.922 863.849 526.182C863.849 519.824 861.183 513.727 856.436 509.232C851.69 504.736 845.252 502.211 838.539 502.211ZM853.36 532.68H845.485V540.138H831.564V532.76H823.831V519.443H831.705V511.985H845.626V519.443H853.5L853.36 532.68Z" fill="white"/>
<g style="mix-blend-mode:screen">
<path d="M557.535 733.766C557.078 733.746 556.642 733.575 556.304 733.284C555.965 732.992 555.744 732.598 555.679 732.168L544.599 663.772L539.677 702.898C539.616 703.359 539.38 703.784 539.012 704.093C538.645 704.401 538.172 704.573 537.68 704.576L511.977 704.336L506.07 719.944C505.923 720.311 505.661 720.627 505.319 720.85C504.978 721.074 504.573 721.194 504.158 721.195C503.744 721.187 503.343 721.057 503.01 720.823C502.678 720.589 502.43 720.263 502.302 719.89L494.681 697.784L491.671 704.656C491.519 704.998 491.265 705.29 490.941 705.498C490.616 705.706 490.235 705.821 489.844 705.827C489.844 705.827 445.55 704.975 445.55 703.937L488.494 702.046L493.049 691.632C493.2 691.273 493.466 690.967 493.809 690.757C494.151 690.547 494.554 690.443 494.962 690.46C495.37 690.477 495.763 690.611 496.089 690.844C496.416 691.077 496.66 691.398 496.79 691.765L504.271 713.471L508.714 701.779C508.863 701.418 509.122 701.107 509.457 700.884C509.792 700.661 510.189 700.537 510.599 700.527L535.909 700.767L542.349 649.55C542.404 649.098 542.631 648.68 542.989 648.376C543.346 648.072 543.809 647.902 544.29 647.899C544.766 647.894 545.229 648.053 545.591 648.347C545.953 648.641 546.19 649.05 546.258 649.497L558.21 723.14L564.988 700.9C565.11 700.512 565.358 700.17 565.696 699.922C566.033 699.674 566.444 699.531 566.872 699.515L604.275 700.607L568.419 703.271L559.476 732.515C559.337 732.893 559.073 733.219 558.724 733.445C558.374 733.67 557.958 733.783 557.535 733.766Z" fill="#CDEAEA"/>
</g>
<g style="mix-blend-mode:screen">
<path d="M495.693 679.619L494.681 679.034C491.025 676.929 472.773 665.956 472.773 655.223C472.641 653.529 472.873 651.828 473.453 650.222C474.033 648.615 474.95 647.137 476.148 645.874C477.615 644.591 479.396 643.675 481.331 643.21C483.266 642.745 485.293 642.745 487.228 643.211C490.367 643.969 493.263 645.441 495.665 647.499C498.362 645.459 501.503 644.013 504.862 643.264C506.706 642.853 508.63 642.881 510.46 643.346C512.29 643.811 513.971 644.698 515.351 645.927C516.546 647.196 517.457 648.681 518.027 650.292C518.597 651.904 518.816 653.609 518.67 655.303C518.67 665.956 500.418 676.982 496.762 679.087L495.693 679.619ZM484.135 646.7C483.191 646.666 482.249 646.811 481.366 647.126C480.482 647.442 479.673 647.922 478.988 648.537C478.161 649.447 477.538 650.507 477.156 651.651C476.774 652.796 476.642 654.001 476.767 655.196C476.767 662.121 488.213 670.724 495.693 675.198C503.202 670.724 514.648 662.121 514.648 655.223C514.782 654.023 514.658 652.811 514.286 651.658C513.914 650.505 513.301 649.434 512.483 648.511C511.837 647.936 511.076 647.49 510.245 647.197C509.415 646.905 508.531 646.772 507.646 646.806C506.956 646.813 506.268 646.884 505.593 647.019C502.476 647.746 499.585 649.16 497.156 651.148L496.537 651.574L495.103 652.479L493.95 651.281C491.837 649.22 489.189 647.723 486.272 646.939C485.571 646.787 484.854 646.707 484.135 646.7Z" fill="#CDEAEA"/>
</g>
<g style="mix-blend-mode:screen">
<path d="M299.818 444.336V416.689H303.389V428.036H317.451V416.689H320.994V444.336H317.451V431.285H303.389V444.336H299.818Z" fill="#CDEAEA"/>
</g>
<g style="mix-blend-mode:screen">
<path d="M326.956 444.336V416.689H346.417V419.939H330.5V428.408H345.405V431.551H330.5V440.953H347.036V444.229L326.956 444.336Z" fill="#CDEAEA"/>
</g>
<g style="mix-blend-mode:screen">
<path d="M349.004 444.336L359.353 416.689H363.178L374.202 444.336H370.153L367.003 435.946H355.754L352.942 444.336H349.004ZM356.766 432.963H365.906L363.094 425.319C362.222 423.002 361.603 421.084 361.181 419.592C360.846 421.402 360.357 423.184 359.719 424.919L356.766 432.963Z" fill="#CDEAEA"/>
</g>
<g style="mix-blend-mode:screen">
<path d="M376.902 444.336V416.689H380.474V441.059H393.72V444.336H376.902Z" fill="#CDEAEA"/>
</g>
<g style="mix-blend-mode:screen">
<path d="M401.988 444.336V419.939H393.129V416.689H414.474V419.939H405.56V444.336H401.988Z" fill="#CDEAEA"/>
</g>
<g style="mix-blend-mode:screen">
<path d="M418.271 444.336V416.689H421.815V428.036H435.876V416.689H439.448V444.336H435.735V431.285H421.674V444.336H418.271Z" fill="#CDEAEA"/>
</g>
<g style="mix-blend-mode:screen">
<path d="M316.719 456.24H308.873V458.105H316.719V456.24Z" fill="#CDEAEA"/>
</g>
<g style="mix-blend-mode:screen">
<path d="M414.334 458.185H406.206V456.32H414.334V458.185ZM398.079 458.185H389.951V456.32H398.079V458.185ZM381.796 458.185H373.668V456.32H381.796V458.185ZM365.541 458.185H357.413V456.32H365.428L365.541 458.185ZM349.258 458.185H341.13V456.32H349.258V458.185ZM333.003 458.185H324.875V456.32H333.003V458.185Z" fill="#CDEAEA"/>
</g>
<g style="mix-blend-mode:screen">
<path d="M430.336 456.24H422.49V458.105H430.336V456.24Z" fill="#CDEAEA"/>
</g>
<g style="mix-blend-mode:screen">
<path d="M316.719 402.919H308.873V404.783H316.719V402.919Z" fill="#CDEAEA"/>
</g>
<g style="mix-blend-mode:screen">
<path d="M414.334 404.757H406.206V402.919H414.334V404.757ZM398.079 404.757H389.951V402.919H398.079V404.757ZM381.796 404.757H373.668V402.919H381.796V404.757ZM365.541 404.757H357.413V402.919H365.428L365.541 404.757ZM349.258 404.757H341.13V402.919H349.258V404.757ZM333.003 404.757H324.875V402.919H333.003V404.757Z" fill="#CDEAEA"/>
</g>
<g style="mix-blend-mode:screen">
<path d="M430.336 402.919H422.49V404.783H430.336V402.919Z" fill="#CDEAEA"/>
</g>
<g style="mix-blend-mode:screen">
<path d="M459.612 171.043V146.327H464.308L469.932 163.826C470.467 165.477 470.833 166.675 471.058 167.501C471.339 166.595 471.761 165.264 472.323 163.533L477.948 146.327H482.166V171.043H479.157V150.376L472.295 171.043H469.483L462.649 150.003V171.043H459.612Z" fill="#CDEAEA"/>
</g>
<g style="mix-blend-mode:screen">
<path d="M487.257 171.043V146.327H504.355V149.257H490.293V156.821H503.343V159.724H490.293V168.14H504.777V171.043H487.257Z" fill="#CDEAEA"/>
</g>
<g style="mix-blend-mode:screen">
<path d="M509.22 171.043V146.327H517.292C518.708 146.292 520.125 146.417 521.51 146.7C522.805 146.991 523.997 147.597 524.969 148.458C526.261 149.628 527.227 151.083 527.781 152.693C528.429 154.584 528.743 156.564 528.71 158.552C528.739 160.24 528.531 161.924 528.091 163.559C527.75 164.831 527.199 166.045 526.46 167.155C525.897 168.018 525.173 168.776 524.322 169.392C523.469 169.961 522.517 170.385 521.51 170.644C520.267 170.926 518.991 171.06 517.713 171.043H509.22ZM512.342 168.14H517.292C518.537 168.178 519.781 168.025 520.976 167.688C521.771 167.417 522.492 166.98 523.085 166.409C523.898 165.492 524.492 164.42 524.828 163.266C525.266 161.712 525.474 160.107 525.447 158.499C525.562 156.452 525.137 154.411 524.21 152.559C523.589 151.415 522.606 150.483 521.397 149.896C520.093 149.489 518.719 149.318 517.348 149.39H512.398L512.342 168.14Z" fill="#CDEAEA"/>
</g>
<g style="mix-blend-mode:screen">
<path d="M533.575 171.043V146.327H536.696V171.043H533.575Z" fill="#CDEAEA"/>
</g>
<g style="mix-blend-mode:screen">
<path d="M559.054 162.388L562.204 163.214C561.728 165.564 560.49 167.715 558.66 169.366C556.929 170.78 554.702 171.53 552.417 171.47C550.215 171.569 548.038 171 546.202 169.845C544.521 168.648 543.249 167.008 542.546 165.131C541.712 163.01 541.292 160.763 541.309 158.499C541.26 156.192 541.74 153.902 542.715 151.787C543.557 149.979 544.959 148.456 546.736 147.419C548.426 146.432 550.375 145.915 552.361 145.928C554.519 145.856 556.634 146.517 558.323 147.792C560.028 149.174 561.212 151.044 561.698 153.119L558.632 153.865C558.25 152.369 557.42 151.01 556.242 149.95C555.128 149.107 553.73 148.672 552.304 148.725C550.667 148.676 549.061 149.154 547.749 150.083C546.507 151.021 545.61 152.308 545.189 153.758C544.691 155.294 544.444 156.893 544.458 158.499C544.413 160.362 544.708 162.218 545.33 163.986C545.824 165.424 546.815 166.662 548.142 167.502C549.322 168.278 550.727 168.688 552.164 168.674C553.802 168.707 555.393 168.144 556.607 167.102C557.935 165.819 558.792 164.167 559.054 162.388Z" fill="#CDEAEA"/>
</g>
<g style="mix-blend-mode:screen">
<path d="M563.441 171.043L572.525 146.327H575.9L585.546 171.043H581.974L579.162 163.559H569.263L566.675 171.043H563.441ZM570.275 160.896H578.262L575.815 154.051C575.047 151.974 574.484 150.269 574.128 148.937C573.815 150.533 573.393 152.108 572.862 153.651L570.275 160.896Z" fill="#CDEAEA"/>
</g>
<g style="mix-blend-mode:screen">
<path d="M587.937 171.043V146.327H591.058V168.14H602.673V171.043H587.937Z" fill="#CDEAEA"/>
</g>
<g style="mix-blend-mode:screen">
<path d="M504.777 203.83L507.898 204.656C507.439 207.004 506.197 209.151 504.354 210.781C502.63 212.21 500.401 212.971 498.111 212.912C495.912 212.995 493.74 212.427 491.896 211.288C490.232 210.081 488.972 208.444 488.268 206.573C487.421 204.456 487.001 202.206 487.031 199.942C486.966 197.624 487.446 195.322 488.437 193.203C489.276 191.401 490.667 189.879 492.43 188.835C494.129 187.867 496.072 187.352 498.055 187.344C500.217 187.282 502.331 187.952 504.017 189.235C505.707 190.629 506.888 192.493 507.392 194.561L504.298 195.334C503.95 193.818 503.116 192.44 501.908 191.392C500.799 190.559 499.414 190.125 497.999 190.167C496.355 190.105 494.742 190.596 493.443 191.552C492.2 192.483 491.295 193.758 490.856 195.201C490.373 196.74 490.127 198.336 490.125 199.942C490.096 201.812 490.39 203.674 490.996 205.455C491.442 206.818 492.339 208.009 493.554 208.853C494.77 209.697 496.239 210.149 497.746 210.142C499.391 210.18 500.985 209.606 502.189 208.544C503.576 207.286 504.486 205.629 504.777 203.83Z" fill="#CDEAEA"/>
</g>
<g style="mix-blend-mode:screen">
<path d="M509.164 212.486L518.22 187.77H521.594L531.268 212.486H527.697L524.885 205.002H515.013L512.426 212.486H509.164ZM515.97 202.338H523.984L521.51 195.493C520.751 193.416 520.216 191.711 519.85 190.353C519.542 191.961 519.11 193.546 518.557 195.094L515.97 202.338Z" fill="#CDEAEA"/>
</g>
<g style="mix-blend-mode:screen">
<path d="M533.8 212.487V187.77H544.29C545.914 187.691 547.539 187.917 549.07 188.436C550.2 188.92 551.129 189.744 551.714 190.78C552.367 191.925 552.706 193.207 552.698 194.509C552.75 196.131 552.169 197.714 551.067 198.957C549.739 200.275 547.949 201.089 546.033 201.247C546.725 201.559 547.361 201.972 547.917 202.472C548.92 203.458 549.79 204.558 550.505 205.748L554.639 212.487H550.701L547.58 207.346C546.652 205.855 545.892 204.683 545.302 203.937C544.877 203.308 544.345 202.75 543.727 202.286C543.291 201.99 542.806 201.765 542.292 201.62C541.713 201.563 541.129 201.563 540.549 201.62H536.977V212.593L533.8 212.487ZM536.921 198.69H543.643C544.79 198.734 545.935 198.572 547.017 198.211C547.791 197.93 548.437 197.402 548.845 196.719C549.262 196.05 549.475 195.285 549.464 194.509C549.486 193.976 549.39 193.444 549.182 192.949C548.973 192.453 548.658 192.005 548.255 191.632C547.174 190.798 545.791 190.396 544.401 190.514H536.977L536.921 198.69Z" fill="#CDEAEA"/>
</g>
<g style="mix-blend-mode:screen">
<path d="M557.648 212.486V187.77H574.746V190.673H560.685V198.263H573.762V201.167H560.685V209.556H575.197V212.486H557.648Z" fill="#CDEAEA"/>
</g>
<g style="mix-blend-mode:screen">
<path d="M489.337 225.91H480.619V227.961H489.337V225.91Z" fill="#CDEAEA"/>
</g>
<g style="mix-blend-mode:screen">
<path d="M563.666 227.961H554.385V225.91H563.666V227.961ZM545.076 227.961H535.796V225.91H545.076V227.961ZM526.516 227.961H517.291V225.91H526.6L526.516 227.961ZM507.926 227.961H498.618V225.91H507.926V227.961Z" fill="#CDEAEA"/>
</g>
<g style="mix-blend-mode:screen">
<path d="M581.693 225.91H572.975V227.961H581.693V225.91Z" fill="#CDEAEA"/>
</g>
<g style="mix-blend-mode:screen">
<path d="M489.337 128.988H480.619V131.039H489.337V128.988Z" fill="#CDEAEA"/>
</g>
<g style="mix-blend-mode:screen">
<path d="M563.666 131.067H554.385V128.989H563.666V131.067ZM545.076 131.067H535.796V128.989H545.076V131.067ZM526.516 131.067H517.291V128.989H526.6L526.516 131.067ZM507.926 131.067H498.618V128.989H507.926V131.067Z" fill="#CDEAEA"/>
</g>
<g style="mix-blend-mode:screen">
<path d="M581.693 128.988H572.975V131.039H581.693V128.988Z" fill="#CDEAEA"/>
</g>
<path d="M423.361 519.869H318.07L265.423 433.521L318.07 347.174H423.361L476.008 433.521L423.361 519.869ZM319.504 517.525H421.927L473.139 433.521L421.927 349.518H319.504L268.292 433.521L319.504 517.525Z" fill="#81CCCB"/>
<path d="M422.236 690.22H316.973L264.327 603.873L316.973 517.525H422.236L474.882 603.873L422.236 690.22ZM318.407 687.85H420.802L472.013 603.873L420.802 519.869H318.407L267.195 603.873L318.407 687.85Z" fill="#81CCCB"/>
<path d="M579.696 435.173H474.404L421.674 348.826L474.292 262.479H579.583L632.23 348.826L579.696 435.173ZM475.838 432.829H578.262L629.473 348.826L578.262 264.822H475.838L424.627 348.826L475.838 432.829Z" fill="#81CCCB"/>
<path d="M578.571 605.524H473.308L420.661 519.177L473.308 432.829H578.571L631.217 519.177L578.571 605.524ZM474.742 603.18H577.137L628.348 519.177L577.137 435.173H474.742L423.53 519.177L474.742 603.18Z" fill="#81CCCB"/>
<path d="M483.179 433.521C483.179 435.14 482.671 436.722 481.721 438.067C480.771 439.412 479.421 440.46 477.842 441.078C476.263 441.696 474.525 441.856 472.85 441.539C471.174 441.221 469.636 440.44 468.43 439.293C467.224 438.147 466.404 436.688 466.074 435.1C465.744 433.512 465.918 431.867 466.576 430.374C467.234 428.88 468.345 427.605 469.768 426.71C471.192 425.814 472.864 425.339 474.573 425.345C475.705 425.345 476.827 425.556 477.873 425.968C478.919 426.379 479.868 426.982 480.668 427.741C481.467 428.501 482.1 429.402 482.531 430.394C482.962 431.386 483.182 432.449 483.179 433.521Z" fill="#C0E5E5"/>
<path d="M579.021 481.57H551.798V455.788H503.511V481.57H476.288V527.3H503.511V553.082H551.798V527.3H579.021V481.57Z" fill="#CDEAEA"/>
<path d="M479.888 583.551V569.009H482.925L486.582 579.316C486.919 580.275 487.144 580.994 487.313 581.474C487.481 580.941 487.762 580.169 488.128 579.13L491.812 569.009H494.624V583.551H492.656V571.379L488.212 583.551H486.356L481.913 571.166V583.551H479.888Z" fill="#CDEAEA"/>
<path d="M497.859 583.551V569.009H508.855V570.74H499.771V575.188H508.208V576.892H499.771V581.847H509.22V583.551H497.859Z" fill="#CDEAEA"/>
<path d="M512.117 583.55V569.008H517.432C518.375 568.985 519.318 569.056 520.245 569.221C521.074 569.386 521.847 569.743 522.495 570.26C523.318 570.923 523.947 571.777 524.322 572.737C524.732 573.849 524.932 575.022 524.913 576.2C524.93 577.191 524.788 578.179 524.491 579.129C524.281 579.893 523.929 580.614 523.45 581.26C523.069 581.779 522.593 582.23 522.044 582.592C521.487 582.935 520.867 583.179 520.216 583.311C519.414 583.481 518.592 583.561 517.769 583.55H512.117ZM514.17 581.846H517.432C518.238 581.863 519.042 581.773 519.822 581.579C520.344 581.439 520.819 581.173 521.2 580.807C521.727 580.29 522.114 579.659 522.326 578.969C522.602 578.106 522.735 577.208 522.719 576.306C522.796 575.088 522.524 573.874 521.932 572.79C521.509 572.058 520.834 571.484 520.019 571.166C519.163 570.922 518.269 570.823 517.376 570.873H514.17V581.846Z" fill="#CDEAEA"/>
<path d="M527.978 583.551V569.009H530.003V583.551H527.978Z" fill="#CDEAEA"/>
<path d="M544.543 578.464L546.567 578.943C546.252 580.356 545.451 581.63 544.29 582.565C543.121 583.411 541.682 583.853 540.212 583.817C538.801 583.877 537.403 583.543 536.19 582.859C535.139 582.215 534.315 581.287 533.828 580.195C533.269 578.968 532.992 577.642 533.013 576.306C532.972 574.934 533.28 573.573 533.912 572.338C534.475 571.217 535.388 570.287 536.528 569.675C537.665 569.085 538.943 568.783 540.24 568.796C541.629 568.749 542.995 569.143 544.121 569.914C545.226 570.667 546.006 571.774 546.315 573.03L544.318 573.483C544.068 572.578 543.527 571.769 542.771 571.166C542.024 570.669 541.125 570.416 540.212 570.447C539.163 570.41 538.129 570.69 537.259 571.246C536.472 571.779 535.881 572.534 535.572 573.403C534.879 575.356 534.879 577.47 535.572 579.423C535.904 580.289 536.539 581.022 537.371 581.5C538.149 581.954 539.045 582.194 539.959 582.193C540.982 582.2 541.976 581.87 542.771 581.26C543.685 580.55 544.311 579.562 544.543 578.464Z" fill="#CDEAEA"/>
<path d="M547.411 583.551L553.289 569.009H555.482L561.782 583.551H559.476L557.704 579.156H551.264L549.576 583.551H547.411ZM551.826 577.585H557.029L555.426 573.563C554.948 572.338 554.582 571.326 554.357 570.527C554.147 571.434 553.865 572.324 553.513 573.191L551.826 577.585Z" fill="#CDEAEA"/>
<path d="M563.301 583.551V569.009H565.354V581.847H572.919V583.551H563.301Z" fill="#CDEAEA"/>
<path d="M430.701 520.189C430.701 521.807 430.194 523.389 429.244 524.734C428.294 526.079 426.944 527.127 425.365 527.745C423.786 528.363 422.048 528.524 420.373 528.206C418.697 527.888 417.159 527.107 415.953 525.961C414.747 524.815 413.927 523.355 413.597 521.767C413.267 520.18 413.441 518.535 414.099 517.041C414.757 515.547 415.868 514.272 417.292 513.377C418.715 512.482 420.387 512.006 422.096 512.012C423.228 512.012 424.35 512.223 425.396 512.635C426.442 513.046 427.392 513.649 428.191 514.408C428.991 515.168 429.624 516.07 430.055 517.062C430.485 518.053 430.705 519.116 430.701 520.189Z" fill="#C0E5E5"/>
<path d="M577.474 775.875H472.295L419.649 689.527L472.295 603.18H577.587L630.233 689.527L577.474 775.875ZM473.617 773.531H576.04L627.252 689.527L576.04 605.523H473.617L422.405 689.527L473.617 773.531Z" fill="#81CCCB"/>
<path d="M481.828 604.352C481.834 605.971 481.332 607.554 480.387 608.902C479.442 610.25 478.095 611.302 476.518 611.925C474.941 612.548 473.205 612.714 471.528 612.402C469.851 612.089 468.31 611.312 467.1 610.17C465.89 609.028 465.065 607.571 464.729 605.984C464.394 604.397 464.563 602.752 465.215 601.256C465.868 599.761 466.975 598.482 468.395 597.582C469.815 596.683 471.486 596.202 473.195 596.202C475.48 596.202 477.672 597.06 479.29 598.588C480.908 600.116 481.821 602.188 481.828 604.352Z" fill="#C0E5E5"/>
<path d="M734.934 520.854H629.783L577.137 434.48L629.783 348.133H735.075L787.692 434.48L734.934 520.854ZM631.076 518.484H733.5L784.684 434.48L733.5 350.503H631.076L579.865 434.48L631.076 518.484Z" fill="#81CCCB"/>
<path d="M587.036 435.493C587.036 437.105 586.531 438.68 585.585 440.021C584.64 441.361 583.296 442.406 581.724 443.022C580.152 443.639 578.421 443.801 576.752 443.486C575.082 443.172 573.549 442.396 572.345 441.256C571.142 440.116 570.322 438.664 569.99 437.083C569.658 435.502 569.828 433.863 570.48 432.374C571.131 430.884 572.234 429.612 573.65 428.716C575.065 427.821 576.728 427.343 578.43 427.343C580.713 427.343 582.902 428.201 584.516 429.73C586.13 431.258 587.036 433.331 587.036 435.493Z" fill="#C0E5E5"/>
<path d="M733.837 691.179H628.546L575.928 604.832L628.546 518.484H733.837L786.483 604.832L733.837 691.179ZM629.98 688.835H732.403L783.615 604.832L732.403 520.855H629.98L578.768 604.832L629.98 688.835Z" fill="#81CCCB"/>
<path d="M266.379 775.023L264.214 773.851L315.791 689.261L264.58 605.258H161.453V602.914H266.014L318.66 689.261L266.379 775.023Z" fill="#81CCCB"/>
<path d="M273.86 774.437C273.866 776.056 273.363 777.641 272.417 778.99C271.47 780.338 270.122 781.39 268.543 782.013C266.965 782.635 265.226 782.799 263.549 782.484C261.872 782.17 260.331 781.39 259.122 780.245C257.912 779.1 257.09 777.641 256.757 776.052C256.425 774.464 256.598 772.817 257.255 771.322C257.912 769.827 259.023 768.55 260.447 767.654C261.871 766.758 263.545 766.282 265.255 766.287C267.537 766.287 269.726 767.146 271.339 768.674C272.953 770.203 273.86 772.275 273.86 774.437Z" fill="#C0E5E5"/>
<path d="M421.252 861.29H315.96L263.314 774.916L315.96 688.568H421.252L473.898 774.916L421.252 861.29ZM317.394 858.919H419.818L471.03 774.916L419.818 690.939H317.394L266.183 774.916L317.394 858.919Z" fill="#81CCCB"/>
<path d="M324.481 860.092C324.487 861.71 323.985 863.293 323.04 864.641C322.095 865.989 320.748 867.042 319.171 867.665C317.594 868.288 315.857 868.453 314.18 868.141C312.504 867.828 310.963 867.052 309.753 865.909C308.542 864.767 307.717 863.31 307.382 861.723C307.046 860.136 307.216 858.491 307.868 856.995C308.521 855.5 309.628 854.221 311.048 853.321C312.468 852.422 314.139 851.941 315.848 851.941C316.98 851.938 318.102 852.146 319.149 852.554C320.197 852.962 321.149 853.562 321.951 854.319C322.753 855.076 323.389 855.976 323.824 856.967C324.258 857.957 324.481 859.019 324.481 860.092Z" fill="#C0E5E5"/>
<path d="M171.55 432.136C171.555 433.756 171.053 435.34 170.106 436.689C169.16 438.038 167.812 439.09 166.233 439.712C164.654 440.334 162.916 440.498 161.239 440.184C159.561 439.869 158.02 439.09 156.811 437.944C155.602 436.799 154.779 435.34 154.447 433.751C154.115 432.163 154.288 430.517 154.945 429.022C155.602 427.526 156.713 426.25 158.137 425.353C159.561 424.457 161.234 423.981 162.944 423.986C165.224 423.993 167.409 424.854 169.021 426.381C170.633 427.908 171.542 429.977 171.55 432.136Z" fill="#C0E5E5"/>
<path d="M268.067 433.815H163.506V431.444H266.633L317.844 347.467L266.267 262.878L268.433 261.706L320.713 347.467L268.067 433.815Z" fill="#81CCCB"/>
<path d="M266.998 604.166H161.734L109.088 517.792L161.734 431.444H266.998L319.644 517.792L266.998 604.166ZM163.169 601.795H265.564L316.775 517.792L265.564 433.815H163.169L111.957 517.792L163.169 601.795Z" fill="#81CCCB"/>
<path d="M274.366 604.858C274.372 606.477 273.87 608.062 272.923 609.411C271.977 610.759 270.629 611.812 269.05 612.434C267.471 613.056 265.733 613.22 264.055 612.905C262.378 612.591 260.837 611.812 259.628 610.667C258.419 609.521 257.596 608.062 257.264 606.473C256.931 604.885 257.105 603.238 257.762 601.743C258.418 600.248 259.529 598.971 260.953 598.075C262.378 597.178 264.051 596.703 265.761 596.708C268.043 596.708 270.232 597.567 271.846 599.095C273.46 600.624 274.366 602.696 274.366 604.858Z" fill="#C0E5E5"/>
<path d="M170.368 604.086C170.374 605.704 169.872 607.287 168.927 608.635C167.981 609.984 166.635 611.036 165.058 611.659C163.481 612.282 161.744 612.448 160.067 612.135C158.391 611.823 156.85 611.046 155.639 609.903C154.429 608.761 153.604 607.304 153.268 605.717C152.933 604.13 153.103 602.485 153.755 600.989C154.408 599.494 155.514 598.215 156.935 597.315C158.355 596.416 160.025 595.936 161.734 595.936C164.019 595.936 166.211 596.793 167.829 598.321C169.448 599.849 170.361 601.922 170.368 604.086Z" fill="#C0E5E5"/>
<path d="M119.072 518.803C119.072 520.415 118.567 521.991 117.622 523.331C116.676 524.672 115.332 525.716 113.76 526.333C112.187 526.95 110.457 527.111 108.788 526.797C107.118 526.482 105.585 525.706 104.382 524.566C103.178 523.426 102.358 521.974 102.026 520.393C101.694 518.812 101.865 517.174 102.516 515.685C103.167 514.195 104.271 512.922 105.686 512.027C107.101 511.131 108.764 510.653 110.466 510.653C112.749 510.653 114.938 511.512 116.552 513.041C118.166 514.569 119.072 516.642 119.072 518.803Z" fill="#C0E5E5"/>
<path d="M326.788 517.792C326.793 519.41 326.291 520.993 325.346 522.342C324.401 523.69 323.055 524.742 321.477 525.365C319.9 525.988 318.163 526.154 316.487 525.841C314.81 525.529 313.269 524.752 312.059 523.609C310.848 522.467 310.023 521.01 309.688 519.424C309.353 517.837 309.522 516.191 310.175 514.696C310.827 513.2 311.934 511.921 313.354 511.022C314.775 510.122 316.445 509.642 318.154 509.642C320.439 509.642 322.631 510.5 324.249 512.027C325.867 513.555 326.78 515.628 326.788 517.792Z" fill="#C0E5E5"/>
<path d="M171.381 432.643C171.381 434.261 170.874 435.843 169.924 437.188C168.974 438.533 167.624 439.581 166.045 440.199C164.465 440.818 162.728 440.978 161.052 440.66C159.377 440.343 157.838 439.561 156.632 438.415C155.426 437.269 154.606 435.809 154.276 434.221C153.946 432.634 154.121 430.989 154.779 429.495C155.436 428.002 156.547 426.726 157.971 425.831C159.394 424.936 161.066 424.461 162.775 424.466C163.908 424.466 165.029 424.678 166.075 425.089C167.121 425.5 168.071 426.103 168.87 426.862C169.67 427.622 170.303 428.524 170.734 429.516C171.165 430.508 171.385 431.57 171.381 432.643Z" fill="#C0E5E5"/>
<path d="M424.486 349.518H319.195L266.548 263.171L319.195 176.823H424.486L477.132 263.171L424.486 349.518ZM320.629 347.174H423.052L474.264 263.171L423.052 179.167H320.629L269.417 263.171L320.629 347.174Z" fill="#81CCCB"/>
<path d="M328.869 177.996C328.874 179.614 328.373 181.197 327.427 182.546C326.482 183.894 325.136 184.946 323.559 185.569C321.982 186.192 320.245 186.358 318.568 186.045C316.892 185.733 315.35 184.956 314.14 183.814C312.93 182.671 312.105 181.214 311.77 179.627C311.434 178.04 311.603 176.395 312.256 174.899C312.909 173.404 314.015 172.125 315.436 171.226C316.856 170.326 318.526 169.846 320.235 169.846C322.52 169.846 324.712 170.703 326.33 172.231C327.948 173.759 328.861 175.832 328.869 177.996Z" fill="#C0E5E5"/>
<path d="M580.765 264.849H475.473L423.192 179.061L425.358 177.889L476.907 262.478H579.33L630.908 177.889L633.045 179.061L580.765 264.849Z" fill="#81CCCB"/>
<path d="M736.144 350.503H630.879L578.233 264.156L630.879 177.809H736.144L788.789 264.156L736.144 350.503ZM632.285 348.133H734.709L785.921 264.156L734.709 180.152H632.285L581.102 264.156L632.285 348.133Z" fill="#81CCCB"/>
<path d="M745.086 178.981C745.086 180.598 744.58 182.178 743.631 183.523C742.683 184.868 741.334 185.916 739.756 186.535C738.178 187.154 736.443 187.315 734.768 187C733.093 186.684 731.555 185.906 730.348 184.762C729.14 183.619 728.318 182.162 727.984 180.576C727.651 178.989 727.823 177.345 728.476 175.851C729.129 174.357 730.236 173.08 731.656 172.182C733.075 171.283 734.745 170.804 736.452 170.804C738.742 170.804 740.938 171.665 742.557 173.199C744.176 174.732 745.086 176.812 745.086 178.981Z" fill="#C0E5E5"/>
<path d="M890.65 436.159H786.09L733.444 349.811L785.724 264.05L787.889 265.222L736.312 349.811L787.524 433.815H890.65V436.159Z" fill="#81CCCB"/>
<path d="M743.511 350.823C743.511 352.44 743.005 354.021 742.056 355.366C741.108 356.711 739.759 357.759 738.182 358.378C736.604 358.996 734.868 359.158 733.193 358.843C731.518 358.527 729.98 357.748 728.773 356.605C727.565 355.461 726.743 354.004 726.409 352.418C726.076 350.832 726.248 349.188 726.901 347.694C727.555 346.2 728.661 344.923 730.081 344.024C731.5 343.126 733.17 342.646 734.878 342.646C737.168 342.646 739.363 343.508 740.982 345.041C742.602 346.575 743.511 348.654 743.511 350.823Z" fill="#C0E5E5"/>
<path d="M795.707 264.635C795.707 266.247 795.203 267.823 794.257 269.163C793.312 270.503 791.968 271.548 790.395 272.165C788.823 272.782 787.092 272.943 785.423 272.629C783.754 272.314 782.221 271.538 781.017 270.398C779.814 269.258 778.993 267.806 778.661 266.225C778.329 264.644 778.5 263.006 779.152 261.516C779.803 260.027 780.906 258.754 782.321 257.859C783.736 256.963 785.4 256.485 787.102 256.485C789.384 256.485 791.573 257.344 793.187 258.872C794.801 260.401 795.707 262.474 795.707 264.635Z" fill="#C0E5E5"/>
<path d="M899.762 434.986C899.762 436.604 899.256 438.184 898.307 439.529C897.358 440.874 896.009 441.922 894.432 442.541C892.854 443.16 891.119 443.321 889.444 443.006C887.769 442.69 886.231 441.912 885.023 440.768C883.816 439.625 882.993 438.168 882.66 436.581C882.327 434.995 882.498 433.351 883.152 431.857C883.805 430.363 884.912 429.086 886.331 428.188C887.751 427.289 889.42 426.81 891.128 426.81C892.263 426.806 893.387 427.015 894.437 427.425C895.486 427.835 896.439 428.437 897.241 429.197C898.044 429.957 898.68 430.86 899.112 431.853C899.545 432.847 899.766 433.912 899.762 434.986Z" fill="#C0E5E5"/>
<path d="M890.622 606.19H785.359L732.713 519.843L785.359 433.495H890.622L943.268 519.843L890.622 606.19ZM786.793 603.846H889.188L940.399 519.843L889.188 435.839H786.793L735.581 519.843L786.793 603.846Z" fill="#81CCCB"/>
<path d="M1045.35 521.333H940.09L887.445 434.986L940.09 348.639H1045.35L1045.72 349.225L1098 434.986L1045.35 521.333ZM941.525 518.989H1043.92L1095.13 434.986L1043.92 350.982H941.525L890.312 434.986L941.525 518.989Z" fill="#81CCCB"/>
<path d="M898.469 605.017C898.474 606.637 897.972 608.221 897.026 609.57C896.079 610.919 894.731 611.971 893.152 612.593C891.573 613.215 889.835 613.379 888.158 613.065C886.48 612.75 884.94 611.971 883.73 610.826C882.521 609.681 881.698 608.221 881.366 606.633C881.034 605.044 881.207 603.398 881.864 601.903C882.521 600.408 883.632 599.131 885.056 598.234C886.48 597.338 888.153 596.862 889.863 596.867C892.145 596.867 894.335 597.726 895.948 599.255C897.562 600.783 898.469 602.856 898.469 605.017Z" fill="#C0E5E5"/>
<path d="M899.763 434.667C899.768 436.286 899.266 437.871 898.319 439.219C897.373 440.568 896.024 441.62 894.446 442.242C892.867 442.865 891.129 443.029 889.451 442.714C887.774 442.4 886.233 441.62 885.024 440.475C883.815 439.33 882.992 437.871 882.66 436.282C882.327 434.693 882.501 433.047 883.158 431.552C883.815 430.057 884.926 428.78 886.35 427.883C887.774 426.987 889.447 426.511 891.157 426.517C893.437 426.524 895.622 427.385 897.234 428.911C898.846 430.438 899.755 432.507 899.763 434.667Z" fill="#C0E5E5"/>
<path d="M899.087 436.159C899.087 437.771 898.583 439.346 897.637 440.687C896.691 442.027 895.347 443.072 893.775 443.688C892.202 444.305 890.472 444.467 888.803 444.152C887.133 443.838 885.599 443.062 884.396 441.922C883.192 440.782 882.373 439.33 882.041 437.749C881.709 436.168 881.88 434.529 882.531 433.04C883.183 431.551 884.285 430.278 885.7 429.382C887.116 428.487 888.779 428.009 890.481 428.009C892.764 428.009 894.953 428.867 896.567 430.396C898.18 431.924 899.087 433.997 899.087 436.159Z" fill="#C0E5E5"/>
<path d="M627.083 859.692L575.506 775.103H473.082L421.533 859.692L419.368 858.494L471.676 772.732H576.94L629.22 858.494L627.083 859.692Z" fill="#81CCCB"/>
<path d="M429.098 860.092C429.104 861.71 428.602 863.293 427.657 864.641C426.712 865.989 425.365 867.042 423.788 867.665C422.211 868.288 420.474 868.453 418.797 868.141C417.121 867.828 415.58 867.052 414.37 865.909C413.159 864.767 412.334 863.31 411.999 861.723C411.663 860.136 411.833 858.491 412.486 856.995C413.138 855.499 414.245 854.221 415.665 853.321C417.086 852.422 418.756 851.941 420.464 851.941C422.749 851.941 424.941 852.799 426.56 854.327C428.178 855.854 429.091 857.928 429.098 860.092Z" fill="#C0E5E5"/>
<path d="M733.275 860.757H627.983L575.365 774.41L627.983 688.062H733.275L785.921 774.41L733.275 860.757ZM629.417 858.413H731.841L783.052 774.41L731.841 690.406H629.417L578.233 774.41L629.417 858.413Z" fill="#81CCCB"/>
<path d="M741.121 859.586C741.121 861.204 740.614 862.786 739.664 864.131C738.714 865.476 737.364 866.524 735.785 867.143C734.206 867.761 732.468 867.921 730.793 867.603C729.117 867.286 727.579 866.504 726.372 865.358C725.166 864.212 724.346 862.752 724.016 861.165C723.686 859.577 723.861 857.932 724.519 856.438C725.176 854.945 726.288 853.669 727.711 852.774C729.135 851.879 730.807 851.404 732.515 851.409C733.648 851.409 734.769 851.621 735.815 852.032C736.861 852.443 737.811 853.046 738.61 853.806C739.41 854.565 740.043 855.467 740.474 856.459C740.905 857.451 741.125 858.513 741.121 859.586Z" fill="#C0E5E5"/>
<path d="M793.092 774.41C793.092 776.022 792.587 777.597 791.642 778.938C790.696 780.278 789.352 781.323 787.779 781.939C786.207 782.556 784.477 782.718 782.808 782.403C781.139 782.089 779.605 781.312 778.401 780.173C777.198 779.033 776.378 777.581 776.046 776C775.714 774.419 775.884 772.78 776.536 771.291C777.187 769.801 778.291 768.529 779.706 767.633C781.121 766.738 782.785 766.26 784.487 766.26C786.769 766.26 788.958 767.118 790.572 768.647C792.186 770.175 793.092 772.248 793.092 774.41Z" fill="#C0E5E5"/>
<path d="M277.123 262.292C277.123 263.909 276.616 265.49 275.668 266.835C274.719 268.179 273.371 269.227 271.793 269.846C270.215 270.465 268.479 270.627 266.805 270.312C265.13 269.996 263.591 269.217 262.384 268.074C261.176 266.93 260.355 265.473 260.021 263.887C259.688 262.301 259.859 260.657 260.513 259.163C261.166 257.669 262.272 256.392 263.692 255.493C265.112 254.595 266.782 254.115 268.489 254.115C270.779 254.115 272.975 254.977 274.594 256.51C276.213 258.043 277.123 260.123 277.123 262.292Z" fill="#C0E5E5"/>
<path d="M639.26 349.332C639.26 350.95 638.753 352.532 637.803 353.877C636.853 355.223 635.503 356.271 633.923 356.889C632.344 357.507 630.607 357.667 628.931 357.349C627.256 357.032 625.718 356.25 624.512 355.104C623.305 353.958 622.485 352.498 622.155 350.911C621.825 349.323 622 347.678 622.658 346.184C623.316 344.691 624.426 343.415 625.85 342.52C627.273 341.625 628.946 341.15 630.655 341.155C631.787 341.155 632.908 341.367 633.954 341.778C635 342.189 635.95 342.792 636.749 343.552C637.549 344.311 638.182 345.213 638.613 346.205C639.044 347.197 639.264 348.259 639.26 349.332Z" fill="#C0E5E5"/>
<path d="M794.498 434.986C794.498 436.604 793.991 438.184 793.043 439.529C792.094 440.874 790.746 441.922 789.168 442.541C787.591 443.16 785.855 443.321 784.18 443.006C782.505 442.69 780.967 441.912 779.759 440.768C778.552 439.625 777.73 438.168 777.397 436.581C777.064 434.995 777.234 433.351 777.888 431.857C778.541 430.363 779.648 429.086 781.068 428.188C782.488 427.289 784.157 426.81 785.864 426.81C786.999 426.806 788.124 427.015 789.173 427.425C790.222 427.835 791.175 428.437 791.978 429.197C792.78 429.957 793.416 430.86 793.849 431.853C794.281 432.847 794.502 433.912 794.498 434.986Z" fill="#C0E5E5"/>
<path d="M638.416 519.177C638.422 520.795 637.92 522.378 636.975 523.726C636.029 525.074 634.683 526.127 633.106 526.75C631.529 527.373 629.792 527.538 628.115 527.226C626.439 526.913 624.898 526.137 623.688 524.994C622.477 523.852 621.652 522.395 621.317 520.808C620.981 519.221 621.151 517.576 621.804 516.08C622.456 514.584 623.563 513.306 624.983 512.406C626.404 511.507 628.074 511.026 629.783 511.026C632.065 511.033 634.252 511.893 635.869 513.42C637.486 514.946 638.402 517.015 638.416 519.177Z" fill="#C0E5E5"/>
<path d="M742.752 519.656C742.752 521.268 742.248 522.843 741.302 524.184C740.356 525.524 739.012 526.569 737.44 527.186C735.867 527.802 734.137 527.964 732.468 527.649C730.798 527.335 729.265 526.559 728.062 525.419C726.858 524.279 726.039 522.827 725.707 521.246C725.375 519.665 725.545 518.026 726.196 516.537C726.848 515.048 727.95 513.775 729.366 512.879C730.781 511.984 732.445 511.506 734.147 511.506C736.429 511.506 738.618 512.364 740.232 513.893C741.845 515.421 742.752 517.494 742.752 519.656Z" fill="#C0E5E5"/>
<path d="M432.389 348.346C432.383 349.957 431.874 351.53 430.925 352.866C429.976 354.203 428.629 355.244 427.057 355.856C425.484 356.469 423.754 356.627 422.087 356.309C420.419 355.992 418.889 355.213 417.688 354.072C416.487 352.932 415.67 351.479 415.34 349.899C415.011 348.319 415.183 346.682 415.835 345.194C416.487 343.706 417.59 342.435 419.005 341.541C420.419 340.646 422.082 340.169 423.783 340.169C424.915 340.169 426.037 340.381 427.083 340.792C428.129 341.203 429.078 341.806 429.878 342.566C430.677 343.325 431.31 344.227 431.741 345.219C432.172 346.211 432.392 347.273 432.389 348.346Z" fill="#C0E5E5"/>
<path d="M327.687 348.346C327.682 349.957 327.172 351.53 326.223 352.866C325.274 354.203 323.928 355.244 322.355 355.856C320.782 356.469 319.053 356.627 317.386 356.309C315.718 355.992 314.188 355.213 312.987 354.072C311.786 352.932 310.969 351.479 310.639 349.899C310.31 348.319 310.482 346.682 311.134 345.194C311.786 343.706 312.889 342.435 314.304 341.541C315.718 340.646 317.381 340.169 319.082 340.169C320.214 340.169 321.336 340.381 322.382 340.792C323.427 341.203 324.377 341.806 325.177 342.566C325.976 343.325 326.61 344.227 327.04 345.219C327.471 346.211 327.691 347.273 327.687 348.346Z" fill="#C0E5E5"/>
<path d="M484.05 263.757C484.056 265.375 483.554 266.959 482.609 268.307C481.663 269.655 480.317 270.707 478.74 271.33C477.163 271.953 475.426 272.118 473.75 271.806C472.073 271.493 470.531 270.717 469.321 269.574C468.111 268.432 467.286 266.975 466.951 265.388C466.616 263.802 466.785 262.156 467.437 260.66C468.09 259.165 469.196 257.886 470.617 256.987C472.037 256.087 473.708 255.606 475.417 255.606C477.699 255.613 479.887 256.474 481.503 258C483.12 259.526 484.035 261.595 484.05 263.757Z" fill="#C0E5E5"/>
<path d="M588.723 263.757C588.723 265.369 588.219 266.944 587.273 268.285C586.328 269.625 584.984 270.669 583.411 271.286C581.839 271.903 580.108 272.065 578.439 271.75C576.769 271.436 575.236 270.659 574.033 269.519C572.829 268.38 572.01 266.927 571.678 265.346C571.346 263.766 571.516 262.127 572.167 260.638C572.819 259.148 573.922 257.876 575.337 256.98C576.752 256.085 578.416 255.606 580.118 255.606C582.398 255.613 584.582 256.474 586.194 258.001C587.807 259.528 588.716 261.597 588.723 263.757Z" fill="#C0E5E5"/>
<path d="M433.373 177.996C433.378 179.615 432.876 181.2 431.929 182.549C430.983 183.897 429.635 184.949 428.056 185.572C426.478 186.194 424.739 186.358 423.062 186.043C421.384 185.729 419.843 184.949 418.634 183.804C417.425 182.659 416.602 181.2 416.27 179.611C415.938 178.023 416.111 176.376 416.768 174.881C417.425 173.386 418.536 172.109 419.96 171.213C421.384 170.316 423.057 169.84 424.767 169.846C427.05 169.846 429.238 170.704 430.852 172.233C432.466 173.761 433.373 175.834 433.373 177.996Z" fill="#C0E5E5"/>
<path d="M640.582 178.528C640.588 180.148 640.085 181.732 639.138 183.081C638.192 184.43 636.844 185.482 635.265 186.104C633.686 186.726 631.948 186.89 630.271 186.576C628.593 186.261 627.052 185.482 625.843 184.336C624.634 183.191 623.811 181.732 623.479 180.143C623.147 178.555 623.32 176.909 623.977 175.413C624.634 173.918 625.745 172.642 627.169 171.745C628.593 170.849 630.266 170.373 631.976 170.378C634.259 170.378 636.448 171.237 638.062 172.765C639.675 174.294 640.582 176.367 640.582 178.528Z" fill="#C0E5E5"/>
<path d="M275.435 434.534C275.435 436.151 274.929 437.732 273.98 439.077C273.031 440.421 271.683 441.469 270.105 442.088C268.528 442.707 266.792 442.869 265.117 442.553C263.442 442.238 261.904 441.459 260.696 440.316C259.489 439.172 258.666 437.715 258.333 436.129C258 434.543 258.171 432.899 258.825 431.405C259.478 429.911 260.585 428.634 262.005 427.735C263.424 426.837 265.094 426.357 266.801 426.357C267.936 426.354 269.061 426.563 270.11 426.973C271.159 427.382 272.112 427.985 272.914 428.745C273.717 429.504 274.353 430.407 274.785 431.401C275.218 432.394 275.439 433.459 275.435 434.534Z" fill="#C0E5E5"/>
<path d="M586.418 604.352C586.423 605.972 585.921 607.556 584.974 608.905C584.028 610.254 582.679 611.306 581.101 611.928C579.522 612.55 577.784 612.714 576.106 612.4C574.429 612.085 572.888 611.306 571.678 610.161C570.469 609.016 569.647 607.556 569.315 605.968C568.982 604.379 569.155 602.733 569.812 601.238C570.469 599.743 571.58 598.466 573.004 597.569C574.428 596.673 576.102 596.197 577.812 596.202C580.094 596.202 582.283 597.061 583.897 598.59C585.511 600.118 586.418 602.191 586.418 604.352Z" fill="#C0E5E5"/>
<path d="M325.831 689.261C325.831 690.873 325.326 692.449 324.381 693.789C323.435 695.13 322.091 696.174 320.518 696.791C318.946 697.408 317.216 697.569 315.547 697.255C313.877 696.94 312.344 696.164 311.14 695.024C309.937 693.884 309.117 692.432 308.785 690.851C308.453 689.27 308.623 687.632 309.275 686.143C309.926 684.653 311.029 683.381 312.444 682.485C313.859 681.589 315.523 681.111 317.225 681.111C319.505 681.118 321.69 681.979 323.302 683.506C324.915 685.033 325.824 687.102 325.831 689.261Z" fill="#C0E5E5"/>
<path d="M429.605 690.54C429.605 692.157 429.098 693.738 428.149 695.082C427.2 696.427 425.852 697.475 424.275 698.094C422.697 698.713 420.961 698.875 419.287 698.559C417.612 698.244 416.073 697.465 414.866 696.321C413.659 695.178 412.836 693.721 412.503 692.135C412.17 690.549 412.341 688.905 412.994 687.411C413.648 685.917 414.754 684.64 416.174 683.741C417.594 682.843 419.263 682.363 420.971 682.363C422.106 682.36 423.23 682.569 424.279 682.978C425.328 683.388 426.281 683.99 427.084 684.75C427.886 685.51 428.523 686.413 428.955 687.407C429.388 688.4 429.608 689.465 429.605 690.54Z" fill="#C0E5E5"/>
<path d="M638.219 688.356C638.219 689.973 637.713 691.553 636.764 692.898C635.816 694.243 634.467 695.291 632.889 695.91C631.312 696.529 629.576 696.69 627.901 696.375C626.226 696.059 624.688 695.281 623.481 694.137C622.274 692.994 621.451 691.537 621.118 689.951C620.785 688.364 620.956 686.72 621.609 685.226C622.263 683.732 623.369 682.455 624.789 681.557C626.209 680.658 627.878 680.179 629.585 680.179C631.875 680.179 634.072 681.04 635.691 682.574C637.31 684.107 638.219 686.187 638.219 688.356Z" fill="#C0E5E5"/>
<path d="M741.149 691.498C741.149 693.11 740.644 694.686 739.699 696.026C738.753 697.367 737.409 698.411 735.837 699.028C734.264 699.645 732.534 699.806 730.865 699.492C729.196 699.177 727.662 698.401 726.458 697.262C725.255 696.122 724.435 694.67 724.103 693.089C723.771 691.508 723.942 689.869 724.593 688.38C725.244 686.89 726.347 685.617 727.762 684.722C729.177 683.826 730.842 683.349 732.544 683.349C734.826 683.349 737.015 684.207 738.629 685.736C740.243 687.264 741.149 689.337 741.149 691.498Z" fill="#C0E5E5"/>
<path d="M585.939 774.703C585.939 776.32 585.433 777.901 584.484 779.246C583.535 780.59 582.187 781.638 580.61 782.257C579.032 782.876 577.296 783.038 575.621 782.722C573.946 782.407 572.408 781.628 571.2 780.485C569.993 779.341 569.171 777.884 568.838 776.298C568.505 774.712 568.675 773.068 569.329 771.574C569.982 770.08 571.089 768.803 572.508 767.904C573.928 767.006 575.598 766.526 577.306 766.526C578.44 766.523 579.564 766.732 580.614 767.142C581.663 767.551 582.616 768.153 583.418 768.913C584.221 769.673 584.857 770.576 585.289 771.57C585.722 772.563 585.943 773.628 585.939 774.703Z" fill="#C0E5E5"/>
<path d="M481.828 773.025C481.834 774.643 481.332 776.227 480.387 777.575C479.442 778.923 478.095 779.975 476.518 780.598C474.941 781.221 473.205 781.387 471.528 781.074C469.851 780.762 468.31 779.985 467.1 778.843C465.89 777.7 465.065 776.243 464.729 774.657C464.394 773.07 464.563 771.424 465.215 769.929C465.868 768.433 466.975 767.154 468.395 766.255C469.815 765.355 471.486 764.875 473.195 764.875C475.478 764.882 477.665 765.742 479.282 767.268C480.898 768.794 481.813 770.863 481.828 773.025Z" fill="#C0E5E5"/>
<path d="M273.944 774.437C273.95 776.056 273.448 777.641 272.501 778.99C271.555 780.338 270.207 781.39 268.628 782.013C267.049 782.635 265.311 782.799 263.634 782.484C261.956 782.17 260.415 781.39 259.206 780.245C257.997 779.1 257.174 777.641 256.842 776.052C256.51 774.464 256.683 772.817 257.34 771.322C257.997 769.827 259.108 768.55 260.532 767.654C261.956 766.758 263.629 766.282 265.339 766.287C267.621 766.287 269.81 767.146 271.424 768.674C273.038 770.203 273.944 772.275 273.944 774.437Z" fill="#C0E5E5"/>
<path d="M636.758 859.08C636.763 860.699 636.261 862.284 635.314 863.633C634.368 864.981 633.019 866.033 631.441 866.656C629.862 867.278 628.124 867.442 626.446 867.127C624.769 866.813 623.228 866.033 622.019 864.888C620.81 863.743 619.987 862.284 619.655 860.695C619.322 859.107 619.496 857.46 620.153 855.965C620.81 854.47 621.921 853.193 623.345 852.297C624.769 851.4 626.442 850.924 628.152 850.93C630.434 850.93 632.623 851.788 634.237 853.317C635.851 854.845 636.758 856.918 636.758 859.08Z" fill="#C0E5E5"/>
<path d="M793.627 604.832C793.632 606.451 793.13 608.036 792.184 609.385C791.237 610.733 789.889 611.785 788.31 612.408C786.731 613.03 784.993 613.194 783.316 612.879C781.638 612.564 780.098 611.785 778.888 610.64C777.679 609.495 776.856 608.036 776.524 606.447C776.192 604.858 776.365 603.212 777.022 601.717C777.679 600.222 778.79 598.945 780.214 598.048C781.638 597.152 783.311 596.676 785.021 596.682C787.303 596.682 789.492 597.54 791.106 599.069C792.72 600.597 793.627 602.67 793.627 604.832Z" fill="#C0E5E5"/>
</g>
</g>
<defs>
<clipPath id="clip0_73_7318">
<rect width="1098" height="956" fill="white"/>
</clipPath>
</defs>
</svg>
