<svg width="641" height="256" viewBox="0 0 641 256" fill="none" xmlns="http://www.w3.org/2000/svg">
<g opacity="0.62">
<path d="M388.178 253.736L370.2 236.345L380.064 197.266L418.917 186.24L447.921 214.307L438.057 253.387L435.804 254.029H438.91L449.026 213.972L419.197 185.123L379.238 196.456L369.095 236.638L386.752 253.722L388.178 253.736Z" fill="#A6E0DD"/>
<path d="M439.82 254.058L439.12 253.374L448.634 214.392L487.25 203.115L516.281 230.847L510.461 254.658H511.482L517.317 230.791V230.512L487.599 202.193L487.404 201.998L447.683 213.582L437.889 253.416V253.681L438.253 254.03L439.82 254.058Z" fill="#A6E0DD"/>
<path d="M516.687 231.265L486.746 202.765L496.54 162.652L536.247 151.04L566.188 179.54L556.394 219.653L516.687 231.265ZM487.851 202.444L516.953 230.149L555.568 218.857L565.068 179.861L535.967 152.157L497.351 163.448L487.851 202.444Z" fill="#A6E0DD"/>
<path d="M589.805 190.134L559.864 161.634L569.658 121.521L609.364 109.909L639.305 138.409L629.512 178.522L589.805 190.134ZM560.969 161.271L590.071 188.99L628.686 177.699L638.186 138.703L609.084 111.026L570.469 122.303L560.969 161.271Z" fill="#A6E0DD"/>
<path d="M650.023 134.752L638.9 138.004L609.798 110.286L619.312 71.2899L649.911 62.3434V61.3105L618.417 70.4524L608.623 110.551L638.55 139.051L649.939 135.729L650.023 134.752Z" fill="#A6E0DD"/>
<path d="M511.594 254.671L517.191 231.056L555.709 219.514L585.006 247.023L582.921 255.858H583.929L586.111 246.66L555.974 218.369L516.281 230.275L510.517 254.657L511.594 254.671Z" fill="#A6E0DD"/>
<path d="M410.214 178.773L383.533 186.394L363.61 167.133L370.396 140.294L397.077 132.715L416.944 151.934L410.214 178.773ZM383.813 185.235L409.389 177.978L415.881 152.255L396.797 133.776L371.207 141.033L364.715 166.756L383.813 185.235Z" fill="#A6E0DD"/>
<path d="M373.334 140.07C373.466 140.53 373.458 141.018 373.311 141.473C373.164 141.928 372.885 142.33 372.51 142.627C372.134 142.924 371.679 143.103 371.201 143.141C370.723 143.179 370.245 143.075 369.826 142.842C369.408 142.609 369.068 142.257 368.851 141.831C368.633 141.405 368.547 140.924 368.603 140.45C368.66 139.975 368.856 139.527 369.168 139.164C369.48 138.801 369.892 138.538 370.354 138.409C370.659 138.322 370.978 138.296 371.293 138.332C371.608 138.369 371.913 138.467 372.19 138.621C372.467 138.776 372.711 138.983 372.907 139.232C373.103 139.48 373.248 139.765 373.334 140.07Z" fill="#CDEAEA"/>
<path d="M399.512 132.645C399.646 133.104 399.641 133.593 399.496 134.05C399.352 134.506 399.074 134.909 398.7 135.208C398.325 135.507 397.87 135.688 397.392 135.728C396.914 135.768 396.435 135.666 396.015 135.434C395.596 135.202 395.255 134.851 395.035 134.426C394.816 134 394.728 133.519 394.784 133.044C394.839 132.568 395.035 132.12 395.346 131.756C395.657 131.392 396.07 131.128 396.531 130.998C396.835 130.911 397.154 130.884 397.468 130.92C397.783 130.955 398.087 131.052 398.364 131.205C398.641 131.358 398.885 131.564 399.081 131.811C399.278 132.058 399.425 132.342 399.512 132.645Z" fill="#CDEAEA"/>
<path d="M418.539 151.501C418.667 151.958 418.657 152.442 418.51 152.893C418.362 153.344 418.084 153.741 417.711 154.034C417.337 154.328 416.885 154.504 416.411 154.541C415.937 154.579 415.463 154.475 415.048 154.244C414.633 154.013 414.296 153.664 414.08 153.242C413.863 152.82 413.777 152.343 413.831 151.872C413.886 151.401 414.079 150.957 414.387 150.595C414.694 150.234 415.102 149.971 415.559 149.841C416.175 149.668 416.834 149.746 417.393 150.058C417.951 150.369 418.363 150.888 418.539 151.501Z" fill="#CDEAEA"/>
<path d="M412.271 177.447C412.399 177.904 412.389 178.388 412.242 178.839C412.094 179.289 411.816 179.687 411.443 179.98C411.069 180.273 410.617 180.45 410.143 180.487C409.669 180.524 409.195 180.421 408.78 180.19C408.365 179.958 408.028 179.61 407.812 179.188C407.595 178.766 407.509 178.289 407.563 177.818C407.618 177.347 407.811 176.903 408.119 176.541C408.426 176.179 408.834 175.917 409.291 175.786C409.596 175.699 409.915 175.673 410.231 175.709C410.546 175.746 410.851 175.844 411.128 175.998C411.405 176.153 411.648 176.36 411.844 176.609C412.041 176.857 412.186 177.142 412.271 177.447Z" fill="#CDEAEA"/>
<path d="M385.982 184.9C386.114 185.36 386.106 185.848 385.959 186.303C385.812 186.758 385.534 187.16 385.158 187.457C384.782 187.754 384.327 187.933 383.849 187.971C383.371 188.009 382.893 187.905 382.474 187.672C382.056 187.439 381.716 187.087 381.499 186.661C381.281 186.235 381.195 185.754 381.251 185.279C381.308 184.805 381.504 184.357 381.816 183.994C382.128 183.631 382.54 183.368 383.002 183.239C383.618 183.067 384.277 183.145 384.835 183.456C385.394 183.767 385.806 184.286 385.982 184.9Z" fill="#CDEAEA"/>
<path d="M366.576 166.226C366.704 166.683 366.694 167.167 366.547 167.618C366.399 168.068 366.121 168.466 365.748 168.759C365.374 169.052 364.922 169.229 364.448 169.266C363.974 169.303 363.5 169.2 363.085 168.969C362.67 168.737 362.333 168.389 362.117 167.967C361.9 167.545 361.814 167.068 361.868 166.597C361.923 166.126 362.116 165.682 362.424 165.32C362.731 164.958 363.139 164.696 363.596 164.565C364.212 164.393 364.871 164.471 365.43 164.782C365.988 165.093 366.4 165.613 366.576 166.226Z" fill="#CDEAEA"/>
<path d="M146.384 253.513L148.622 244.609L186.72 233.806L207.077 253.457H208.477L187.028 232.703L147.853 243.869L145.405 253.639L146.384 253.513Z" fill="#A6E0DD"/>
<path d="M74.5532 253.708L81.2689 227.497L119.395 216.82L147.713 244.427L145.39 253.513H146.412L148.818 244.12L119.675 215.703L80.4995 226.687L73.5039 253.694L74.5532 253.708Z" fill="#A6E0DD"/>
<path d="M83.1158 226.687C83.2016 226.947 83.2336 227.222 83.21 227.494C83.1865 227.767 83.108 228.032 82.979 228.273C82.8499 228.514 82.6732 228.727 82.4594 228.898C82.2456 229.07 81.9992 229.196 81.7351 229.27C81.471 229.343 81.1947 229.363 80.9228 229.327C80.651 229.291 80.3894 229.201 80.1536 229.061C79.9178 228.921 79.7127 228.736 79.5509 228.515C79.3891 228.294 79.2739 228.043 79.2122 227.776C79.0947 227.269 79.1779 226.736 79.4443 226.288C79.7107 225.84 80.14 225.512 80.6427 225.372C81.1455 225.231 81.683 225.29 82.1436 225.535C82.6042 225.78 82.9524 226.193 83.1158 226.687Z" fill="#CDEAEA"/>
<path d="M10.25 254.099L4.06601 247.93L14.3074 209.772L52.5593 199.541L80.5416 227.455L73.546 253.709H74.5814L81.5769 227.441V227.162L52.7551 198.425L13.398 208.962L2.94665 247.958L2.86279 248.237L8.75301 254.099H10.25Z" fill="#A6E0DD"/>
<path d="M106.971 213.47L86.6417 219.192L71.5032 204.537L76.694 184.104L97.037 178.382L112.175 193.079L106.971 213.47ZM86.9214 218.09L106.159 212.674L111.07 193.344L96.7572 179.387L77.5194 184.802L72.6085 204.133L86.9214 218.09Z" fill="#A6E0DD"/>
<path d="M108.664 212.647C108.782 213.039 108.78 213.458 108.658 213.85C108.536 214.241 108.301 214.588 107.981 214.846C107.662 215.103 107.272 215.26 106.863 215.296C106.454 215.333 106.043 215.247 105.683 215.049C105.323 214.852 105.03 214.552 104.841 214.188C104.652 213.824 104.576 213.412 104.623 213.005C104.669 212.597 104.836 212.213 105.102 211.901C105.369 211.588 105.722 211.362 106.117 211.251C106.641 211.1 107.202 211.162 107.68 211.423C108.157 211.685 108.511 212.125 108.664 212.647Z" fill="#CDEAEA"/>
<path d="M88.7822 218.118C88.9 218.511 88.8981 218.93 88.7766 219.321C88.6551 219.713 88.4195 220.06 88.0999 220.317C87.7803 220.575 87.391 220.732 86.9817 220.768C86.5724 220.804 86.1615 220.718 85.8014 220.521C85.4413 220.323 85.148 220.024 84.9592 219.66C84.7704 219.295 84.6946 218.884 84.7411 218.476C84.7877 218.069 84.9547 217.685 85.2209 217.373C85.4871 217.06 85.8404 216.834 86.2359 216.723C86.7591 216.571 87.3211 216.634 87.7985 216.895C88.2758 217.157 88.6296 217.597 88.7822 218.118Z" fill="#CDEAEA"/>
<path d="M74.1616 204.049C74.2785 204.442 74.2759 204.86 74.1542 205.25C74.0326 205.641 73.7974 205.987 73.4784 206.244C73.1594 206.502 72.771 206.658 72.3625 206.695C71.954 206.732 71.5438 206.647 71.1839 206.451C70.8239 206.254 70.5303 205.956 70.3407 205.593C70.151 205.23 70.0736 204.819 70.1183 204.413C70.163 204.006 70.3279 203.622 70.5919 203.308C70.8559 202.995 71.2072 202.767 71.6013 202.654C72.1263 202.502 72.69 202.564 73.1696 202.825C73.6493 203.087 74.0059 203.527 74.1616 204.049Z" fill="#CDEAEA"/>
<path d="M79.0726 184.035C79.1461 184.296 79.1672 184.569 79.1349 184.838C79.1026 185.108 79.0175 185.368 78.8844 185.605C78.7512 185.841 78.5726 186.049 78.3588 186.217C78.1451 186.385 77.9003 186.509 77.6384 186.582C77.3766 186.655 77.1028 186.676 76.8328 186.644C76.5628 186.612 76.3019 186.527 76.0648 186.394C75.8277 186.261 75.619 186.083 75.451 185.87C75.2829 185.657 75.1586 185.413 75.0851 185.151C74.9367 184.624 75.0044 184.059 75.2733 183.582C75.5423 183.104 75.9905 182.752 76.5192 182.604C77.048 182.456 77.6141 182.524 78.0929 182.792C78.5718 183.06 78.9241 183.507 79.0726 184.035Z" fill="#CDEAEA"/>
<path d="M98.8838 178.326C98.9609 178.586 98.9859 178.858 98.9573 179.127C98.9286 179.396 98.8468 179.657 98.7168 179.894C98.5867 180.131 98.4109 180.341 98.1995 180.51C97.988 180.679 97.7452 180.805 97.4847 180.881C97.0915 180.997 96.6724 180.995 96.2806 180.873C95.8889 180.752 95.5421 180.517 95.2842 180.199C95.0264 179.881 94.8691 179.494 94.8323 179.086C94.7955 178.678 94.8809 178.269 95.0776 177.91C95.2743 177.551 95.5735 177.258 95.9372 177.069C96.3009 176.88 96.7127 176.803 97.1204 176.847C97.5281 176.892 97.9134 177.056 98.2273 177.32C98.5412 177.583 98.7698 177.933 98.8838 178.326Z" fill="#CDEAEA"/>
<path d="M113.589 192.562C113.707 192.955 113.704 193.374 113.583 193.765C113.461 194.157 113.226 194.504 112.906 194.761C112.587 195.019 112.197 195.176 111.788 195.212C111.379 195.248 110.968 195.162 110.608 194.965C110.248 194.767 109.955 194.468 109.766 194.104C109.577 193.739 109.501 193.328 109.548 192.92C109.594 192.513 109.761 192.129 110.027 191.817C110.294 191.504 110.647 191.278 111.042 191.167C111.565 191.019 112.126 191.083 112.602 191.344C113.079 191.605 113.433 192.043 113.589 192.562Z" fill="#CDEAEA"/>
<path d="M302.945 230.219L281.398 236.332L265.308 220.756L270.779 199.081L292.339 192.968L308.415 208.544L302.945 230.219ZM281.678 235.216L302.119 229.424L307.31 208.851L292.059 194.084L271.604 199.89L266.414 220.449L281.678 235.216Z" fill="#A6E0DD"/>
<path d="M294.074 193.121C294.162 193.486 294.14 193.869 294.011 194.221C293.883 194.574 293.653 194.881 293.351 195.104C293.048 195.327 292.687 195.457 292.311 195.477C291.936 195.497 291.563 195.406 291.238 195.216C290.914 195.025 290.653 194.744 290.488 194.407C290.323 194.07 290.261 193.692 290.31 193.32C290.358 192.948 290.516 192.598 290.762 192.315C291.009 192.031 291.333 191.826 291.696 191.725C291.944 191.657 292.203 191.638 292.459 191.671C292.714 191.705 292.96 191.789 293.182 191.919C293.404 192.05 293.597 192.223 293.751 192.43C293.904 192.636 294.014 192.871 294.074 193.121Z" fill="#CDEAEA"/>
<path d="M309.73 208.18C309.833 208.658 309.749 209.158 309.496 209.577C309.243 209.995 308.839 210.302 308.368 210.436C307.896 210.569 307.391 210.518 306.956 210.294C306.52 210.069 306.187 209.688 306.022 209.227C305.952 208.985 305.93 208.732 305.958 208.481C305.986 208.231 306.063 207.988 306.186 207.768C306.308 207.547 306.473 207.353 306.67 207.196C306.868 207.04 307.095 206.923 307.338 206.854C307.831 206.716 308.359 206.778 308.807 207.026C309.255 207.275 309.587 207.689 309.73 208.18Z" fill="#CDEAEA"/>
<path d="M304.456 229.27C304.558 229.748 304.474 230.247 304.221 230.666C303.968 231.085 303.565 231.392 303.093 231.525C302.621 231.659 302.117 231.608 301.681 231.383C301.246 231.159 300.912 230.778 300.748 230.317C300.659 230.068 300.623 229.805 300.641 229.542C300.659 229.279 300.731 229.022 300.852 228.788C300.973 228.554 301.141 228.347 301.346 228.18C301.551 228.014 301.787 227.891 302.042 227.819C302.296 227.747 302.562 227.728 302.824 227.763C303.086 227.798 303.338 227.886 303.564 228.022C303.79 228.159 303.986 228.339 304.139 228.554C304.293 228.769 304.4 229.012 304.456 229.27Z" fill="#CDEAEA"/>
<path d="M283.385 235.243C283.493 235.61 283.489 236 283.374 236.364C283.259 236.728 283.038 237.05 282.739 237.288C282.44 237.527 282.077 237.671 281.696 237.704C281.315 237.736 280.933 237.655 280.598 237.47C280.263 237.286 279.991 237.006 279.816 236.667C279.64 236.327 279.57 235.944 279.614 235.564C279.658 235.185 279.814 234.828 280.061 234.537C280.309 234.246 280.638 234.035 281.006 233.931C281.249 233.861 281.503 233.839 281.754 233.867C282.005 233.895 282.248 233.972 282.469 234.094C282.69 234.216 282.885 234.38 283.042 234.578C283.199 234.775 283.316 235.001 283.385 235.243Z" fill="#CDEAEA"/>
<path d="M267.771 220.281C267.876 220.648 267.869 221.038 267.752 221.4C267.635 221.763 267.412 222.083 267.112 222.32C266.813 222.557 266.449 222.699 266.068 222.73C265.687 222.76 265.306 222.677 264.972 222.491C264.638 222.305 264.368 222.025 264.194 221.685C264.02 221.345 263.952 220.962 263.997 220.583C264.042 220.205 264.198 219.848 264.447 219.558C264.695 219.268 265.024 219.059 265.392 218.955C265.884 218.818 266.41 218.88 266.856 219.128C267.302 219.377 267.631 219.792 267.771 220.281Z" fill="#CDEAEA"/>
<path d="M273.213 199.038C273.318 199.405 273.312 199.794 273.194 200.157C273.077 200.52 272.855 200.84 272.555 201.077C272.255 201.314 271.892 201.456 271.511 201.487C271.13 201.517 270.748 201.434 270.415 201.248C270.081 201.062 269.81 200.781 269.637 200.442C269.463 200.102 269.394 199.719 269.439 199.34C269.484 198.961 269.641 198.605 269.889 198.315C270.138 198.025 270.467 197.815 270.835 197.712C271.326 197.575 271.853 197.637 272.299 197.885C272.744 198.134 273.073 198.548 273.213 199.038Z" fill="#CDEAEA"/>
<path d="M83.7453 226.088C83.9091 226.651 83.9016 227.25 83.7236 227.808C83.5457 228.367 83.2054 228.861 82.7459 229.226C82.2863 229.591 81.7283 229.812 81.1427 229.861C80.557 229.91 79.97 229.784 79.4563 229.499C78.9425 229.214 78.5252 228.784 78.2572 228.262C77.9891 227.74 77.8825 227.151 77.9508 226.569C78.019 225.986 78.2592 225.437 78.6408 224.991C79.0223 224.546 79.5279 224.223 80.0937 224.064C80.4666 223.957 80.857 223.925 81.2424 223.969C81.6278 224.013 82.0009 224.133 82.3401 224.321C82.6792 224.509 82.9778 224.762 83.219 225.065C83.4601 225.368 83.639 225.716 83.7453 226.088Z" fill="#CDEAEA"/>
<path d="M122.515 215.424C122.672 215.984 122.66 216.579 122.479 217.132C122.298 217.685 121.957 218.172 121.498 218.532C121.04 218.892 120.485 219.109 119.903 219.154C119.322 219.2 118.74 219.073 118.231 218.789C117.722 218.504 117.308 218.076 117.043 217.558C116.778 217.04 116.672 216.455 116.74 215.877C116.808 215.299 117.045 214.754 117.423 214.311C117.801 213.867 118.302 213.546 118.863 213.386C119.237 213.28 119.628 213.248 120.014 213.293C120.401 213.338 120.774 213.459 121.113 213.648C121.453 213.838 121.751 214.092 121.992 214.397C122.232 214.701 122.41 215.05 122.515 215.424Z" fill="#CDEAEA"/>
<path d="M151.337 243.617C151.499 244.353 151.374 245.123 150.986 245.77C150.599 246.417 149.979 246.892 149.253 247.098C148.526 247.305 147.748 247.227 147.077 246.881C146.407 246.535 145.893 245.947 145.642 245.236C145.508 244.855 145.453 244.451 145.481 244.048C145.509 243.645 145.619 243.253 145.805 242.894C145.991 242.535 146.248 242.218 146.562 241.963C146.875 241.707 147.237 241.518 147.627 241.407C148.016 241.297 148.424 241.267 148.825 241.319C149.226 241.372 149.613 241.505 149.96 241.712C150.308 241.919 150.609 242.195 150.846 242.523C151.083 242.85 151.25 243.223 151.337 243.617Z" fill="#CDEAEA"/>
<path d="M188.889 232.355C189.046 232.915 189.034 233.509 188.853 234.062C188.672 234.616 188.331 235.103 187.872 235.463C187.414 235.823 186.859 236.039 186.278 236.085C185.696 236.131 185.114 236.003 184.605 235.719C184.096 235.435 183.683 235.007 183.417 234.489C183.152 233.971 183.046 233.386 183.114 232.808C183.182 232.23 183.419 231.685 183.797 231.241C184.175 230.798 184.676 230.476 185.237 230.317C185.611 230.211 186.002 230.179 186.388 230.224C186.775 230.269 187.148 230.39 187.487 230.579C187.827 230.768 188.125 231.023 188.366 231.327C188.606 231.632 188.784 231.981 188.889 232.355Z" fill="#CDEAEA"/>
<path d="M5.81484 247.972C5.97862 248.535 5.97094 249.133 5.79297 249.692C5.61501 250.251 5.27472 250.744 4.8152 251.11C4.35568 251.475 3.79766 251.696 3.21199 251.745C2.62633 251.794 2.03951 251.667 1.52578 251.383C1.01205 251.098 0.594542 250.668 0.326494 250.146C0.0584451 249.624 -0.0481931 249.035 0.020096 248.452C0.0883851 247.87 0.328558 247.321 0.710088 246.875C1.09162 246.429 1.59744 246.107 2.16317 245.948C2.53615 245.841 2.92646 245.809 3.31191 245.853C3.69735 245.897 4.07026 246.017 4.4094 246.205C4.74855 246.393 5.04732 246.645 5.28846 246.949C5.5296 247.252 5.70847 247.599 5.81484 247.972Z" fill="#CDEAEA"/>
<path d="M15.9023 208.851C16.0596 209.411 16.0471 210.005 15.8662 210.558C15.6853 211.112 15.3442 211.599 14.8859 211.959C14.4276 212.319 13.8726 212.535 13.291 212.581C12.7095 212.627 12.1274 212.499 11.6183 212.215C11.1092 211.931 10.696 211.503 10.4307 210.985C10.1653 210.467 10.0597 209.882 10.1273 209.304C10.195 208.726 10.4328 208.181 10.8107 207.737C11.1885 207.294 11.6896 206.972 12.2506 206.813C12.6245 206.707 13.0157 206.675 13.4019 206.72C13.788 206.765 14.1615 206.886 14.5008 207.075C14.8401 207.264 15.1386 207.519 15.3791 207.823C15.6196 208.128 15.7974 208.477 15.9023 208.851Z" fill="#CDEAEA"/>
<path d="M55.3853 198.452C55.5426 199.013 55.5301 199.607 55.3492 200.16C55.1683 200.713 54.8272 201.201 54.3689 201.561C53.9106 201.921 53.3556 202.137 52.774 202.183C52.1925 202.228 51.6106 202.101 51.1015 201.817C50.5924 201.533 50.179 201.105 49.9137 200.586C49.6483 200.068 49.5429 199.483 49.6105 198.905C49.6781 198.327 49.9158 197.782 50.2937 197.339C50.6715 196.896 51.1726 196.574 51.7336 196.414C52.1075 196.308 52.4987 196.277 52.8849 196.322C53.271 196.367 53.6446 196.487 53.9839 196.677C54.3232 196.866 54.6216 197.12 54.8621 197.425C55.1026 197.73 55.2804 198.079 55.3853 198.452Z" fill="#CDEAEA"/>
<path d="M172.575 226.576L152.232 232.313L137.122 217.602L142.326 197.183L162.655 191.446L177.794 206.143L172.575 226.576ZM152.512 231.196L171.736 225.781L176.647 206.464L162.334 192.507L143.096 197.922L138.185 217.239L152.512 231.196Z" fill="#A6E0DD"/>
<path d="M174.268 225.766C174.385 226.158 174.383 226.576 174.261 226.967C174.139 227.358 173.904 227.704 173.585 227.961C173.266 228.218 172.878 228.375 172.469 228.412C172.061 228.449 171.65 228.364 171.29 228.167C170.93 227.971 170.637 227.673 170.447 227.31C170.258 226.947 170.18 226.536 170.225 226.129C170.27 225.723 170.435 225.338 170.699 225.025C170.963 224.712 171.314 224.484 171.708 224.37C172.233 224.219 172.797 224.281 173.276 224.542C173.756 224.803 174.113 225.244 174.268 225.766Z" fill="#CDEAEA"/>
<path d="M154.387 231.223C154.504 231.615 154.501 232.033 154.38 232.424C154.258 232.815 154.023 233.161 153.704 233.418C153.385 233.675 152.996 233.832 152.588 233.869C152.179 233.906 151.769 233.821 151.409 233.624C151.049 233.428 150.756 233.13 150.566 232.767C150.376 232.404 150.299 231.993 150.344 231.587C150.388 231.18 150.553 230.796 150.817 230.482C151.081 230.169 151.432 229.941 151.826 229.827C152.351 229.676 152.915 229.738 153.395 229.999C153.874 230.261 154.231 230.701 154.387 231.223Z" fill="#CDEAEA"/>
<path d="M139.724 217.099C139.872 217.627 139.805 218.191 139.536 218.669C139.267 219.147 138.819 219.498 138.29 219.646C137.761 219.794 137.195 219.727 136.716 219.459C136.237 219.19 135.885 218.743 135.736 218.216C135.663 217.955 135.642 217.682 135.674 217.412C135.706 217.143 135.791 216.882 135.925 216.646C136.058 216.409 136.236 216.201 136.45 216.034C136.664 215.866 136.909 215.742 137.171 215.669C137.432 215.595 137.706 215.574 137.976 215.606C138.246 215.639 138.507 215.724 138.744 215.856C138.981 215.989 139.19 216.167 139.358 216.381C139.526 216.594 139.65 216.838 139.724 217.099Z" fill="#CDEAEA"/>
<path d="M144.663 197.14C144.781 197.533 144.779 197.952 144.657 198.344C144.536 198.735 144.3 199.082 143.98 199.339C143.661 199.597 143.271 199.754 142.862 199.79C142.453 199.826 142.042 199.74 141.682 199.543C141.322 199.346 141.029 199.046 140.84 198.682C140.651 198.318 140.575 197.906 140.622 197.498C140.668 197.091 140.835 196.707 141.102 196.395C141.368 196.082 141.721 195.856 142.116 195.745C142.639 195.597 143.2 195.661 143.676 195.922C144.153 196.183 144.507 196.621 144.663 197.14Z" fill="#CDEAEA"/>
<path d="M164.475 191.446C164.592 191.839 164.59 192.258 164.469 192.65C164.347 193.041 164.112 193.388 163.792 193.645C163.472 193.903 163.083 194.06 162.674 194.096C162.265 194.132 161.854 194.046 161.494 193.849C161.133 193.652 160.84 193.352 160.652 192.988C160.463 192.624 160.387 192.212 160.433 191.804C160.48 191.397 160.647 191.013 160.913 190.701C161.179 190.388 161.533 190.162 161.928 190.051C162.451 189.9 163.013 189.962 163.491 190.223C163.968 190.485 164.322 190.925 164.475 191.446Z" fill="#CDEAEA"/>
<path d="M179.179 205.668C179.297 206.061 179.295 206.48 179.173 206.871C179.052 207.263 178.816 207.609 178.497 207.867C178.177 208.125 177.788 208.282 177.378 208.318C176.969 208.354 176.558 208.268 176.198 208.071C175.838 207.873 175.545 207.573 175.356 207.209C175.167 206.845 175.091 206.433 175.138 206.026C175.184 205.619 175.352 205.235 175.618 204.922C175.884 204.61 176.237 204.384 176.633 204.272C177.156 204.121 177.718 204.183 178.195 204.445C178.673 204.707 179.026 205.146 179.179 205.668Z" fill="#CDEAEA"/>
<path d="M227.21 253.388L228.05 250.08L256.466 242.013L268.218 253.388H269.618L256.718 240.91L227.196 249.284L226.161 253.388H227.21Z" fill="#A6E0DD"/>
<path d="M230.205 249.2C230.338 249.662 230.332 250.152 230.185 250.61C230.039 251.068 229.76 251.473 229.384 251.772C229.007 252.072 228.55 252.254 228.07 252.294C227.59 252.334 227.108 252.231 226.687 251.999C226.265 251.766 225.922 251.414 225.702 250.986C225.481 250.559 225.392 250.076 225.447 249.599C225.501 249.121 225.697 248.671 226.008 248.304C226.32 247.937 226.733 247.671 227.196 247.539C227.816 247.362 228.481 247.438 229.045 247.749C229.608 248.06 230.026 248.582 230.205 249.2Z" fill="#CDEAEA"/>
<path d="M258.929 240.826C259.063 241.289 259.057 241.78 258.911 242.239C258.765 242.698 258.486 243.103 258.108 243.403C257.731 243.703 257.273 243.884 256.792 243.924C256.311 243.964 255.829 243.86 255.408 243.627C254.986 243.393 254.643 243.039 254.424 242.61C254.204 242.182 254.117 241.698 254.173 241.22C254.229 240.742 254.427 240.291 254.741 239.926C255.054 239.56 255.47 239.295 255.934 239.165C256.24 239.078 256.56 239.052 256.877 239.088C257.193 239.124 257.499 239.222 257.777 239.377C258.055 239.531 258.3 239.738 258.497 239.987C258.695 240.236 258.842 240.521 258.929 240.826Z" fill="#CDEAEA"/>
<path d="M326.114 253.527L307.813 235.773L315.033 207.203L343.449 199.136L364.645 219.667L357.44 248.237L338.692 253.555H342.288L358.265 249.019L365.751 219.332L343.729 198.02L314.207 206.394L306.708 236.08L324.715 253.499L326.114 253.527Z" fill="#A6E0DD"/>
<path d="M317.146 206.24C317.277 206.702 317.267 207.193 317.119 207.649C316.971 208.106 316.69 208.509 316.312 208.807C315.935 209.104 315.477 209.284 314.997 209.322C314.517 209.36 314.037 209.256 313.617 209.022C313.196 208.788 312.855 208.435 312.636 208.007C312.417 207.58 312.329 207.097 312.385 206.62C312.441 206.143 312.637 205.693 312.949 205.327C313.261 204.962 313.674 204.697 314.138 204.565C314.445 204.478 314.767 204.452 315.085 204.489C315.403 204.526 315.71 204.625 315.99 204.781C316.269 204.936 316.515 205.145 316.713 205.396C316.912 205.646 317.059 205.933 317.146 206.24Z" fill="#CDEAEA"/>
<path d="M345.869 197.936C346.001 198.399 345.993 198.89 345.844 199.347C345.696 199.805 345.415 200.208 345.037 200.506C344.659 200.805 344.2 200.984 343.719 201.022C343.239 201.059 342.758 200.954 342.337 200.719C341.917 200.484 341.576 200.129 341.357 199.7C341.139 199.272 341.053 198.788 341.111 198.31C341.169 197.833 341.367 197.383 341.681 197.018C341.995 196.654 342.411 196.39 342.875 196.261C343.182 196.174 343.503 196.148 343.82 196.185C344.137 196.223 344.443 196.322 344.721 196.477C345 196.633 345.244 196.842 345.441 197.092C345.638 197.343 345.784 197.629 345.869 197.936Z" fill="#CDEAEA"/>
<path d="M367.5 218.844C367.631 219.306 367.621 219.796 367.473 220.253C367.325 220.71 367.044 221.112 366.666 221.41C366.289 221.708 365.831 221.887 365.351 221.926C364.871 221.964 364.391 221.859 363.971 221.625C363.55 221.391 363.209 221.038 362.99 220.611C362.771 220.183 362.683 219.7 362.739 219.223C362.795 218.747 362.991 218.297 363.303 217.931C363.615 217.565 364.028 217.3 364.492 217.169C364.799 217.081 365.121 217.056 365.439 217.093C365.757 217.129 366.064 217.229 366.344 217.384C366.623 217.54 366.869 217.749 367.067 217.999C367.266 218.249 367.413 218.536 367.5 218.844Z" fill="#CDEAEA"/>
<path d="M360.238 247.944C360.373 248.407 360.367 248.898 360.221 249.357C360.075 249.816 359.795 250.221 359.418 250.521C359.041 250.821 358.583 251.003 358.102 251.042C357.621 251.082 357.139 250.979 356.717 250.745C356.296 250.511 355.953 250.157 355.733 249.729C355.514 249.3 355.426 248.816 355.483 248.338C355.539 247.86 355.737 247.41 356.05 247.044C356.364 246.678 356.779 246.413 357.244 246.284C357.55 246.196 357.87 246.17 358.186 246.206C358.502 246.242 358.808 246.34 359.086 246.495C359.365 246.649 359.609 246.856 359.807 247.105C360.005 247.354 360.151 247.639 360.238 247.944Z" fill="#CDEAEA"/>
<path d="M309.562 235.243C309.693 235.705 309.684 236.195 309.536 236.652C309.388 237.109 309.107 237.512 308.729 237.81C308.352 238.107 307.894 238.287 307.414 238.325C306.934 238.363 306.454 238.259 306.033 238.025C305.613 237.791 305.272 237.438 305.053 237.01C304.833 236.583 304.746 236.1 304.802 235.623C304.858 235.146 305.054 234.696 305.366 234.33C305.678 233.965 306.091 233.699 306.554 233.568C306.862 233.481 307.184 233.455 307.502 233.492C307.82 233.529 308.127 233.628 308.406 233.784C308.686 233.939 308.932 234.148 309.13 234.398C309.328 234.649 309.475 234.936 309.562 235.243Z" fill="#CDEAEA"/>
<path d="M296.537 161.69L284.099 165.221L274.823 156.247L277.985 143.685L290.422 140.168L299.699 149.142L296.537 161.69ZM284.294 164.481L295.991 161.159L298.957 149.394L290.227 141.019L278.53 144.327L275.564 156.107L284.294 164.481Z" fill="#A6E0DD"/>
<path d="M279.719 143.657C279.772 143.836 279.789 144.024 279.768 144.209C279.748 144.394 279.69 144.573 279.599 144.736C279.507 144.898 279.384 145.041 279.237 145.156C279.089 145.27 278.92 145.354 278.74 145.402C278.56 145.457 278.371 145.475 278.183 145.456C277.996 145.436 277.815 145.379 277.65 145.288C277.485 145.197 277.341 145.073 277.225 144.925C277.11 144.777 277.025 144.607 276.977 144.425C276.875 144.055 276.925 143.659 277.115 143.326C277.305 142.992 277.62 142.747 277.991 142.646C278.363 142.544 278.759 142.593 279.093 142.783C279.428 142.973 279.673 143.287 279.775 143.657H279.719Z" fill="#CDEAEA"/>
<path d="M291.724 140.251C291.795 140.516 291.786 140.797 291.699 141.057C291.611 141.317 291.448 141.546 291.231 141.714C291.014 141.883 290.752 141.984 290.477 142.004C290.203 142.025 289.929 141.964 289.689 141.83C289.448 141.696 289.253 141.494 289.128 141.25C289.002 141.006 288.951 140.73 288.982 140.458C289.012 140.185 289.123 139.927 289.299 139.717C289.476 139.506 289.711 139.352 289.975 139.274C290.154 139.221 290.342 139.205 290.527 139.225C290.713 139.246 290.893 139.304 291.056 139.395C291.219 139.486 291.362 139.609 291.477 139.756C291.591 139.903 291.675 140.071 291.724 140.251Z" fill="#CDEAEA"/>
<path d="M300.538 148.863C300.608 149.127 300.599 149.407 300.511 149.666C300.424 149.925 300.261 150.153 300.045 150.321C299.828 150.49 299.567 150.59 299.293 150.612C299.02 150.633 298.746 150.573 298.506 150.44C298.266 150.307 298.071 150.107 297.944 149.864C297.818 149.621 297.765 149.346 297.794 149.074C297.823 148.802 297.931 148.544 298.106 148.333C298.28 148.121 298.513 147.966 298.775 147.886C298.955 147.831 299.145 147.812 299.332 147.832C299.519 147.851 299.7 147.909 299.865 148C300.03 148.091 300.174 148.215 300.29 148.363C300.405 148.511 300.49 148.681 300.538 148.863Z" fill="#CDEAEA"/>
<path d="M297.6 160.867C297.671 161.132 297.662 161.412 297.575 161.672C297.487 161.932 297.325 162.161 297.107 162.329C296.89 162.498 296.628 162.599 296.354 162.619C296.079 162.64 295.805 162.58 295.565 162.445C295.325 162.311 295.13 162.11 295.004 161.865C294.878 161.621 294.827 161.346 294.858 161.073C294.889 160.8 294.999 160.542 295.176 160.332C295.352 160.121 295.587 159.968 295.851 159.89C296.03 159.837 296.218 159.82 296.404 159.841C296.589 159.861 296.769 159.919 296.932 160.01C297.095 160.101 297.238 160.224 297.353 160.371C297.468 160.518 297.552 160.687 297.6 160.867Z" fill="#CDEAEA"/>
<path d="M285.428 164.565C285.481 164.743 285.497 164.931 285.477 165.116C285.456 165.301 285.398 165.48 285.307 165.643C285.216 165.806 285.093 165.948 284.945 166.063C284.798 166.177 284.629 166.261 284.448 166.309C284.268 166.364 284.079 166.383 283.892 166.363C283.705 166.343 283.523 166.286 283.358 166.195C283.194 166.104 283.049 165.98 282.934 165.832C282.818 165.684 282.734 165.514 282.686 165.332C282.583 164.962 282.633 164.567 282.823 164.233C283.013 163.899 283.329 163.655 283.7 163.553C284.071 163.451 284.467 163.5 284.802 163.69C285.136 163.88 285.382 164.194 285.484 164.565H285.428Z" fill="#CDEAEA"/>
<path d="M276.669 155.688C276.771 156.058 276.722 156.453 276.532 156.787C276.341 157.121 276.026 157.365 275.655 157.467C275.284 157.569 274.887 157.52 274.553 157.33C274.218 157.14 273.973 156.825 273.871 156.455C273.82 156.272 273.807 156.081 273.83 155.892C273.854 155.703 273.914 155.521 274.009 155.356C274.103 155.191 274.229 155.046 274.379 154.929C274.53 154.812 274.702 154.726 274.885 154.676C275.069 154.625 275.261 154.612 275.45 154.635C275.639 154.659 275.822 154.719 275.987 154.813C276.153 154.907 276.298 155.033 276.415 155.183C276.532 155.333 276.619 155.504 276.669 155.688Z" fill="#CDEAEA"/>
<path d="M349.787 173.832L328.24 179.945L312.151 164.383L317.607 142.708L339.168 136.595L355.243 152.157L349.787 173.832ZM328.52 178.829L348.961 173.037L354.152 152.464L338.902 137.697L318.447 143.503L313.284 164.062L328.52 178.829Z" fill="#A6E0DD"/>
<path d="M340.945 136.735C341.046 137.098 341.037 137.484 340.919 137.842C340.801 138.201 340.579 138.517 340.282 138.75C339.984 138.983 339.624 139.123 339.247 139.152C338.87 139.182 338.493 139.099 338.162 138.915C337.832 138.731 337.564 138.454 337.392 138.118C337.219 137.782 337.15 137.403 337.193 137.028C337.236 136.653 337.39 136.299 337.634 136.011C337.878 135.723 338.203 135.514 338.566 135.409C338.809 135.339 339.064 135.318 339.316 135.346C339.568 135.375 339.811 135.454 340.033 135.577C340.254 135.7 340.448 135.866 340.605 136.065C340.761 136.264 340.877 136.491 340.945 136.735Z" fill="#CDEAEA"/>
<path d="M356.587 151.794C356.69 152.158 356.684 152.543 356.568 152.903C356.453 153.263 356.232 153.58 355.936 153.815C355.64 154.05 355.28 154.192 354.903 154.224C354.525 154.255 354.147 154.174 353.816 153.992C353.484 153.809 353.215 153.532 353.041 153.197C352.867 152.861 352.796 152.482 352.838 152.106C352.88 151.731 353.033 151.376 353.276 151.087C353.52 150.798 353.845 150.588 354.208 150.482C354.451 150.412 354.705 150.39 354.956 150.418C355.207 150.446 355.45 150.523 355.671 150.645C355.892 150.767 356.086 150.931 356.244 151.128C356.401 151.326 356.517 151.552 356.587 151.794Z" fill="#CDEAEA"/>
<path d="M351.326 172.883C351.434 173.249 351.43 173.639 351.315 174.003C351.2 174.367 350.979 174.689 350.68 174.928C350.381 175.166 350.018 175.311 349.637 175.344C349.256 175.376 348.874 175.295 348.539 175.11C348.204 174.925 347.932 174.646 347.756 174.306C347.581 173.967 347.511 173.583 347.555 173.204C347.599 172.825 347.754 172.467 348.002 172.176C348.25 171.886 348.579 171.675 348.948 171.571C349.19 171.501 349.444 171.479 349.695 171.507C349.946 171.535 350.189 171.612 350.41 171.734C350.631 171.856 350.826 172.02 350.983 172.217C351.14 172.414 351.257 172.641 351.326 172.883Z" fill="#CDEAEA"/>
<path d="M330.199 178.871C330.291 179.239 330.271 179.626 330.143 179.983C330.015 180.34 329.785 180.651 329.48 180.878C329.175 181.105 328.81 181.237 328.431 181.257C328.051 181.278 327.674 181.187 327.346 180.994C327.019 180.802 326.755 180.518 326.589 180.177C326.423 179.836 326.361 179.453 326.412 179.078C326.462 178.702 326.623 178.349 326.874 178.064C327.125 177.779 327.454 177.574 327.821 177.475C328.069 177.408 328.328 177.391 328.583 177.425C328.837 177.46 329.083 177.544 329.304 177.674C329.526 177.804 329.719 177.977 329.873 178.182C330.027 178.388 330.138 178.622 330.199 178.871Z" fill="#CDEAEA"/>
<path d="M314.641 163.895C314.732 164.263 314.713 164.65 314.585 165.007C314.457 165.364 314.226 165.676 313.922 165.902C313.617 166.129 313.252 166.261 312.872 166.282C312.493 166.303 312.116 166.211 311.788 166.019C311.46 165.827 311.197 165.542 311.031 165.201C310.864 164.86 310.803 164.478 310.853 164.102C310.904 163.726 311.065 163.374 311.316 163.089C311.566 162.804 311.896 162.599 312.263 162.5C312.511 162.433 312.77 162.416 313.024 162.45C313.279 162.484 313.524 162.569 313.746 162.699C313.967 162.829 314.161 163.001 314.314 163.207C314.468 163.412 314.579 163.646 314.641 163.895Z" fill="#CDEAEA"/>
<path d="M320.084 142.652C320.189 143.019 320.182 143.409 320.065 143.772C319.948 144.134 319.725 144.454 319.425 144.691C319.126 144.928 318.762 145.07 318.381 145.101C318 145.131 317.619 145.048 317.285 144.862C316.951 144.676 316.681 144.396 316.507 144.056C316.333 143.716 316.265 143.333 316.31 142.954C316.355 142.576 316.511 142.219 316.76 141.929C317.008 141.639 317.337 141.43 317.705 141.327C318.197 141.189 318.723 141.251 319.169 141.5C319.615 141.748 319.944 142.163 320.084 142.652Z" fill="#CDEAEA"/>
<path d="M473.552 179.667L446.871 187.231L426.962 167.957L433.734 141.117L460.415 133.553L480.324 152.897L473.552 179.667ZM447.151 186.115L472.741 178.857L479.233 153.134L460.135 134.655L434.559 141.913L428.137 167.65L447.151 186.115Z" fill="#A6E0DD"/>
<path d="M436.672 140.95C436.806 141.409 436.801 141.898 436.656 142.354C436.512 142.811 436.235 143.214 435.86 143.513C435.486 143.811 435.03 143.992 434.552 144.033C434.074 144.073 433.595 143.971 433.176 143.739C432.756 143.507 432.415 143.156 432.196 142.73C431.976 142.305 431.889 141.824 431.944 141.348C431.999 140.873 432.195 140.425 432.506 140.061C432.817 139.696 433.23 139.433 433.692 139.303C433.996 139.215 434.314 139.189 434.629 139.224C434.943 139.26 435.247 139.357 435.524 139.51C435.801 139.663 436.045 139.869 436.242 140.116C436.439 140.363 436.585 140.646 436.672 140.95Z" fill="#CDEAEA"/>
<path d="M462.849 133.524C462.984 133.983 462.979 134.472 462.834 134.928C462.69 135.385 462.412 135.788 462.038 136.087C461.663 136.386 461.208 136.567 460.73 136.607C460.252 136.647 459.773 136.545 459.353 136.313C458.933 136.081 458.592 135.73 458.373 135.305C458.154 134.879 458.066 134.398 458.122 133.923C458.177 133.447 458.373 132.999 458.684 132.635C458.995 132.271 459.408 132.007 459.869 131.877C460.173 131.79 460.492 131.763 460.806 131.798C461.121 131.834 461.425 131.931 461.702 132.084C461.979 132.237 462.222 132.443 462.419 132.69C462.616 132.937 462.762 133.22 462.849 133.524Z" fill="#CDEAEA"/>
<path d="M481.877 152.381C482.005 152.837 481.995 153.322 481.848 153.772C481.7 154.223 481.422 154.62 481.049 154.914C480.675 155.207 480.223 155.383 479.749 155.421C479.275 155.458 478.801 155.355 478.386 155.123C477.971 154.892 477.634 154.543 477.418 154.121C477.201 153.699 477.115 153.223 477.169 152.752C477.224 152.28 477.417 151.836 477.725 151.475C478.032 151.113 478.44 150.85 478.897 150.72C479.202 150.633 479.521 150.606 479.837 150.643C480.152 150.679 480.457 150.778 480.734 150.932C481.01 151.086 481.254 151.294 481.45 151.542C481.647 151.791 481.792 152.076 481.877 152.381Z" fill="#CDEAEA"/>
<path d="M475.609 178.327C475.737 178.783 475.727 179.267 475.58 179.718C475.432 180.169 475.154 180.566 474.781 180.859C474.407 181.153 473.955 181.329 473.481 181.367C473.007 181.404 472.533 181.3 472.118 181.069C471.703 180.838 471.366 180.489 471.15 180.067C470.933 179.645 470.847 179.168 470.901 178.697C470.956 178.226 471.149 177.782 471.457 177.42C471.764 177.059 472.172 176.796 472.629 176.666C473.245 176.494 473.904 176.572 474.463 176.883C475.021 177.194 475.433 177.713 475.609 178.327Z" fill="#CDEAEA"/>
<path d="M449.32 185.78C449.451 186.236 449.443 186.721 449.298 187.173C449.152 187.625 448.876 188.024 448.504 188.319C448.131 188.614 447.68 188.793 447.205 188.832C446.731 188.871 446.256 188.77 445.84 188.54C445.424 188.31 445.085 187.962 444.867 187.54C444.649 187.118 444.561 186.641 444.615 186.17C444.668 185.698 444.861 185.253 445.168 184.89C445.475 184.528 445.883 184.264 446.34 184.133C446.644 184.046 446.962 184.019 447.277 184.054C447.591 184.09 447.895 184.187 448.172 184.34C448.449 184.493 448.693 184.699 448.89 184.946C449.087 185.193 449.233 185.476 449.32 185.78Z" fill="#CDEAEA"/>
<path d="M429.956 167.105C430.085 167.562 430.075 168.047 429.928 168.498C429.781 168.95 429.502 169.348 429.128 169.641C428.754 169.935 428.301 170.112 427.826 170.149C427.352 170.185 426.877 170.081 426.462 169.848C426.047 169.616 425.71 169.266 425.494 168.843C425.279 168.419 425.194 167.942 425.25 167.47C425.307 166.998 425.502 166.554 425.812 166.194C426.122 165.833 426.532 165.572 426.99 165.444C427.604 165.272 428.261 165.35 428.818 165.662C429.374 165.973 429.783 166.492 429.956 167.105Z" fill="#CDEAEA"/>
<path d="M372.928 235.829C373.092 236.392 373.084 236.991 372.906 237.55C372.728 238.108 372.388 238.602 371.928 238.967C371.469 239.333 370.911 239.554 370.325 239.602C369.74 239.651 369.153 239.525 368.639 239.24C368.125 238.955 367.708 238.525 367.44 238.003C367.172 237.481 367.065 236.892 367.133 236.31C367.202 235.727 367.442 235.179 367.823 234.733C368.205 234.287 368.711 233.964 369.276 233.805C369.649 233.699 370.04 233.667 370.425 233.711C370.811 233.755 371.184 233.874 371.523 234.062C371.862 234.25 372.161 234.503 372.402 234.806C372.643 235.109 372.822 235.457 372.928 235.829Z" fill="#CDEAEA"/>
<path d="M382.666 196.471C382.829 197.033 382.821 197.631 382.643 198.189C382.464 198.747 382.125 199.24 381.666 199.605C381.207 199.97 380.65 200.191 380.065 200.24C379.48 200.289 378.894 200.164 378.38 199.88C377.866 199.597 377.449 199.168 377.18 198.647C376.911 198.127 376.803 197.539 376.869 196.957C376.936 196.375 377.173 195.826 377.553 195.379C377.932 194.932 378.436 194.608 379 194.447C379.755 194.235 380.564 194.329 381.25 194.708C381.936 195.087 382.445 195.72 382.666 196.471Z" fill="#CDEAEA"/>
<path d="M421.435 185.808C421.593 186.368 421.58 186.962 421.399 187.515C421.218 188.069 420.877 188.556 420.419 188.916C419.961 189.276 419.406 189.492 418.824 189.538C418.243 189.584 417.661 189.456 417.152 189.172C416.642 188.888 416.229 188.46 415.964 187.942C415.698 187.424 415.593 186.839 415.661 186.261C415.728 185.683 415.966 185.138 416.344 184.694C416.722 184.251 417.223 183.929 417.784 183.77C418.158 183.664 418.549 183.632 418.935 183.677C419.321 183.722 419.695 183.843 420.034 184.032C420.373 184.221 420.672 184.476 420.912 184.78C421.153 185.085 421.33 185.434 421.435 185.808Z" fill="#CDEAEA"/>
<path d="M450.257 214.057C450.42 214.792 450.294 215.562 449.907 216.209C449.52 216.856 448.9 217.331 448.173 217.538C447.447 217.744 446.669 217.667 445.998 217.321C445.327 216.975 444.814 216.386 444.563 215.676C444.401 214.94 444.526 214.17 444.913 213.523C445.3 212.876 445.92 212.401 446.647 212.194C447.373 211.988 448.151 212.065 448.822 212.412C449.493 212.758 450.006 213.346 450.257 214.057Z" fill="#CDEAEA"/>
<path d="M440.197 254.057C440.295 253.625 440.295 253.177 440.197 252.745C439.985 252.031 439.509 251.423 438.865 251.045C438.222 250.667 437.458 250.546 436.729 250.707C436 250.868 435.359 251.299 434.935 251.913C434.512 252.527 434.337 253.278 434.447 254.015L440.197 254.057Z" fill="#CDEAEA"/>
<path d="M519.08 230.051C519.237 230.611 519.224 231.205 519.043 231.759C518.863 232.312 518.521 232.799 518.063 233.159C517.605 233.519 517.05 233.736 516.468 233.781C515.887 233.827 515.305 233.699 514.796 233.415C514.286 233.131 513.873 232.703 513.608 232.185C513.343 231.667 513.237 231.082 513.305 230.504C513.372 229.926 513.61 229.381 513.988 228.938C514.366 228.494 514.867 228.173 515.428 228.013C515.802 227.907 516.193 227.875 516.579 227.92C516.965 227.965 517.339 228.086 517.678 228.275C518.017 228.464 518.316 228.719 518.556 229.024C518.797 229.328 518.975 229.677 519.08 230.051Z" fill="#CDEAEA"/>
<path d="M558.52 218.885C558.678 219.446 558.665 220.04 558.484 220.593C558.303 221.146 557.962 221.634 557.504 221.994C557.046 222.354 556.491 222.57 555.909 222.616C555.328 222.661 554.746 222.534 554.237 222.25C553.727 221.966 553.314 221.538 553.049 221.019C552.783 220.501 552.678 219.916 552.746 219.338C552.813 218.76 553.051 218.215 553.429 217.772C553.807 217.329 554.308 217.007 554.869 216.847C555.624 216.641 556.43 216.738 557.113 217.12C557.797 217.501 558.302 218.135 558.52 218.885Z" fill="#CDEAEA"/>
<path d="M587.706 245.725C587.87 246.288 587.862 246.887 587.684 247.446C587.506 248.004 587.166 248.498 586.706 248.863C586.247 249.229 585.689 249.45 585.103 249.498C584.517 249.547 583.93 249.421 583.417 249.136C582.903 248.852 582.486 248.421 582.218 247.899C581.95 247.378 581.843 246.788 581.911 246.206C581.979 245.624 582.22 245.075 582.601 244.629C582.983 244.183 583.488 243.86 584.054 243.701C584.807 243.49 585.614 243.584 586.298 243.963C586.982 244.342 587.488 244.976 587.706 245.725Z" fill="#CDEAEA"/>
<path d="M499.604 163.351C499.761 163.911 499.749 164.505 499.568 165.058C499.387 165.612 499.046 166.099 498.587 166.459C498.129 166.819 497.574 167.035 496.993 167.081C496.411 167.127 495.829 166.999 495.32 166.715C494.811 166.431 494.398 166.003 494.132 165.485C493.867 164.967 493.761 164.382 493.829 163.804C493.897 163.226 494.134 162.681 494.512 162.237C494.89 161.794 495.391 161.472 495.952 161.313C496.326 161.207 496.717 161.175 497.103 161.22C497.49 161.265 497.863 161.386 498.202 161.575C498.542 161.764 498.84 162.019 499.081 162.323C499.321 162.628 499.499 162.977 499.604 163.351Z" fill="#CDEAEA"/>
<path d="M538.989 152.185C539.146 152.745 539.134 153.339 538.953 153.892C538.772 154.446 538.431 154.933 537.972 155.293C537.514 155.653 536.959 155.869 536.377 155.915C535.796 155.961 535.214 155.833 534.705 155.549C534.196 155.265 533.782 154.837 533.517 154.319C533.252 153.801 533.146 153.216 533.214 152.638C533.281 152.06 533.519 151.515 533.897 151.071C534.275 150.628 534.776 150.306 535.337 150.147C535.711 150.041 536.102 150.009 536.488 150.054C536.874 150.099 537.248 150.22 537.587 150.409C537.926 150.598 538.225 150.853 538.466 151.157C538.706 151.462 538.884 151.811 538.989 152.185Z" fill="#CDEAEA"/>
<path d="M568.174 179.024C568.332 179.585 568.319 180.179 568.138 180.732C567.957 181.285 567.616 181.773 567.158 182.133C566.7 182.493 566.145 182.709 565.563 182.755C564.982 182.8 564.4 182.673 563.891 182.389C563.381 182.105 562.968 181.677 562.703 181.159C562.437 180.64 562.332 180.055 562.4 179.477C562.467 178.899 562.705 178.354 563.083 177.911C563.461 177.468 563.962 177.146 564.523 176.987C564.897 176.88 565.288 176.849 565.674 176.894C566.06 176.939 566.434 177.059 566.773 177.249C567.112 177.438 567.411 177.692 567.651 177.997C567.892 178.302 568.069 178.651 568.174 179.024Z" fill="#CDEAEA"/>
<path d="M489.6 201.983C489.76 202.543 489.75 203.138 489.572 203.692C489.393 204.247 489.053 204.736 488.596 205.098C488.139 205.46 487.584 205.678 487.002 205.726C486.421 205.773 485.838 205.648 485.327 205.365C484.817 205.082 484.403 204.655 484.136 204.137C483.869 203.619 483.762 203.034 483.828 202.455C483.895 201.877 484.132 201.331 484.509 200.887C484.886 200.442 485.387 200.12 485.948 199.959C486.321 199.853 486.712 199.821 487.097 199.865C487.483 199.909 487.856 200.028 488.195 200.216C488.534 200.404 488.833 200.657 489.074 200.96C489.315 201.263 489.494 201.611 489.6 201.983Z" fill="#CDEAEA"/>
<path d="M563.235 160.922C563.399 161.485 563.392 162.084 563.214 162.642C563.036 163.201 562.695 163.695 562.236 164.06C561.776 164.425 561.218 164.647 560.633 164.695C560.047 164.744 559.46 164.618 558.946 164.333C558.433 164.048 558.015 163.618 557.747 163.096C557.479 162.574 557.372 161.985 557.441 161.403C557.509 160.82 557.749 160.271 558.131 159.825C558.512 159.379 559.018 159.057 559.584 158.898C559.957 158.791 560.347 158.759 560.733 158.803C561.118 158.847 561.491 158.967 561.83 159.155C562.169 159.343 562.468 159.596 562.709 159.899C562.95 160.202 563.129 160.55 563.235 160.922Z" fill="#CDEAEA"/>
<path d="M572.973 121.563C573.137 122.126 573.129 122.725 572.951 123.284C572.773 123.843 572.433 124.336 571.974 124.701C571.514 125.067 570.956 125.288 570.37 125.337C569.785 125.385 569.198 125.259 568.684 124.974C568.17 124.69 567.753 124.259 567.485 123.738C567.217 123.216 567.11 122.626 567.179 122.044C567.247 121.462 567.487 120.913 567.869 120.467C568.25 120.021 568.756 119.698 569.322 119.54C569.695 119.433 570.085 119.401 570.47 119.445C570.856 119.489 571.229 119.608 571.568 119.796C571.907 119.984 572.206 120.237 572.447 120.54C572.688 120.843 572.867 121.191 572.973 121.563Z" fill="#CDEAEA"/>
<path d="M612.344 110.397C612.504 110.957 612.494 111.552 612.316 112.106C612.137 112.661 611.797 113.15 611.34 113.512C610.883 113.874 610.328 114.092 609.747 114.14C609.165 114.187 608.582 114.062 608.072 113.779C607.561 113.496 607.147 113.069 606.88 112.551C606.613 112.033 606.506 111.448 606.572 110.869C606.639 110.291 606.876 109.745 607.253 109.301C607.631 108.857 608.132 108.534 608.693 108.373C609.066 108.267 609.456 108.235 609.842 108.279C610.227 108.323 610.6 108.442 610.939 108.63C611.278 108.818 611.577 109.071 611.818 109.374C612.059 109.677 612.238 110.025 612.344 110.397Z" fill="#CDEAEA"/>
<path d="M641.53 137.237C641.69 137.797 641.68 138.392 641.501 138.946C641.323 139.5 640.983 139.989 640.526 140.351C640.068 140.713 639.514 140.932 638.932 140.979C638.35 141.027 637.768 140.901 637.257 140.619C636.747 140.336 636.332 139.908 636.065 139.39C635.799 138.873 635.691 138.287 635.758 137.709C635.824 137.13 636.061 136.584 636.439 136.14C636.816 135.696 637.317 135.373 637.878 135.213C638.632 135.002 639.438 135.096 640.122 135.475C640.806 135.854 641.312 136.487 641.53 137.237Z" fill="#CDEAEA"/>
<path d="M632.716 176.707C632.879 177.27 632.872 177.869 632.694 178.428C632.516 178.986 632.176 179.48 631.716 179.845C631.257 180.211 630.699 180.432 630.113 180.48C629.527 180.529 628.94 180.403 628.426 180.118C627.913 179.833 627.495 179.403 627.227 178.881C626.959 178.359 626.853 177.77 626.921 177.188C626.989 176.605 627.229 176.056 627.611 175.611C627.992 175.165 628.498 174.842 629.064 174.683C629.437 174.577 629.827 174.544 630.213 174.588C630.598 174.633 630.971 174.752 631.31 174.94C631.649 175.128 631.948 175.381 632.189 175.684C632.43 175.987 632.609 176.335 632.716 176.707Z" fill="#CDEAEA"/>
<path d="M594.1 188.25C594.26 188.81 594.25 189.405 594.071 189.959C593.893 190.513 593.553 191.002 593.096 191.364C592.639 191.726 592.084 191.945 591.502 191.992C590.921 192.04 590.338 191.914 589.827 191.632C589.317 191.349 588.902 190.921 588.636 190.403C588.369 189.886 588.262 189.3 588.328 188.722C588.395 188.143 588.631 187.598 589.009 187.153C589.386 186.709 589.887 186.386 590.448 186.226C590.821 186.12 591.212 186.087 591.597 186.131C591.983 186.176 592.356 186.295 592.695 186.483C593.034 186.671 593.333 186.924 593.574 187.227C593.815 187.53 593.994 187.878 594.1 188.25Z" fill="#CDEAEA"/>
<path d="M621.928 70.411C622.088 70.971 622.078 71.5657 621.9 72.12C621.721 72.6744 621.381 73.1634 620.924 73.5254C620.467 73.8873 619.912 74.1059 619.331 74.1535C618.749 74.201 618.166 74.0755 617.656 73.7927C617.145 73.5099 616.731 73.0825 616.464 72.5646C616.197 72.0467 616.09 71.4616 616.156 70.883C616.223 70.3045 616.46 69.7586 616.837 69.3144C617.215 68.8702 617.716 68.5475 618.277 68.3872C618.65 68.2807 619.04 68.2485 619.425 68.2926C619.811 68.3367 620.184 68.4561 620.523 68.6441C620.862 68.832 621.161 69.0848 621.402 69.388C621.643 69.6912 621.822 70.0388 621.928 70.411Z" fill="#CDEAEA"/>
<path d="M601.935 103.364L572.414 111.738L550.392 90.4253L557.877 60.7248L587.398 52.3506L609.434 73.6629L601.935 103.364ZM572.693 110.635L601.109 102.568L608.329 73.984L587.118 53.4671L558.702 61.5343L551.497 90.0904L572.693 110.635Z" fill="#A6E0DD"/>
<path d="M560.871 60.5707C561.002 61.0328 560.993 61.5232 560.845 61.9801C560.696 62.4369 560.416 62.8396 560.038 63.1373C559.66 63.435 559.202 63.6144 558.723 63.6527C558.243 63.691 557.762 63.5865 557.342 63.3525C556.922 63.1185 556.58 62.7654 556.361 62.3378C556.142 61.9103 556.055 61.4276 556.11 60.9507C556.166 60.4737 556.362 60.0239 556.674 59.6582C556.986 59.2925 557.4 59.0272 557.863 58.8959C558.484 58.7236 559.149 58.8027 559.712 59.1163C560.275 59.4299 560.692 59.9526 560.871 60.5707Z" fill="#CDEAEA"/>
<path d="M589.595 52.2665C589.726 52.7285 589.717 53.219 589.568 53.6758C589.42 54.1326 589.139 54.5353 588.762 54.8331C588.384 55.1308 587.926 55.3101 587.446 55.3484C586.967 55.3866 586.486 55.2822 586.066 55.0482C585.645 54.8141 585.304 54.4611 585.085 54.0336C584.866 53.6061 584.779 53.1233 584.834 52.6463C584.89 52.1693 585.086 51.7196 585.398 51.3538C585.71 50.9881 586.124 50.7229 586.587 50.5916C586.894 50.5043 587.216 50.4784 587.534 50.5154C587.852 50.5523 588.159 50.6515 588.439 50.807C588.718 50.9626 588.964 51.1715 589.162 51.4219C589.361 51.6723 589.508 51.9593 589.595 52.2665Z" fill="#CDEAEA"/>
<path d="M611.225 73.1736C611.356 73.6357 611.347 74.1261 611.199 74.583C611.05 75.0398 610.77 75.4425 610.392 75.7402C610.014 76.0379 609.557 76.2172 609.077 76.2555C608.597 76.2938 608.117 76.1893 607.696 75.9553C607.276 75.7213 606.935 75.3682 606.715 74.9407C606.496 74.5132 606.409 74.0305 606.465 73.5536C606.52 73.0766 606.717 72.6268 607.029 72.2611C607.341 71.8954 607.754 71.63 608.217 71.4988C608.525 71.4115 608.847 71.3856 609.165 71.4226C609.482 71.4596 609.79 71.5586 610.069 71.7142C610.349 71.8697 610.594 72.0787 610.793 72.3291C610.991 72.5795 611.138 72.8665 611.225 73.1736Z" fill="#CDEAEA"/>
<path d="M603.964 102.274C604.095 102.736 604.086 103.227 603.937 103.684C603.789 104.14 603.508 104.543 603.13 104.841C602.753 105.138 602.295 105.318 601.815 105.356C601.336 105.394 600.855 105.29 600.435 105.056C600.014 104.822 599.673 104.469 599.454 104.041C599.235 103.614 599.147 103.131 599.203 102.654C599.259 102.177 599.455 101.727 599.767 101.362C600.079 100.996 600.493 100.731 600.956 100.599C601.263 100.512 601.585 100.486 601.903 100.523C602.221 100.56 602.528 100.659 602.808 100.815C603.087 100.97 603.333 101.179 603.531 101.43C603.73 101.68 603.877 101.967 603.964 102.274Z" fill="#CDEAEA"/>
<path d="M574.904 110.523C575.035 110.985 575.026 111.475 574.878 111.932C574.729 112.389 574.449 112.792 574.071 113.09C573.693 113.387 573.236 113.567 572.756 113.605C572.276 113.643 571.795 113.539 571.375 113.305C570.955 113.071 570.614 112.718 570.394 112.29C570.175 111.863 570.088 111.38 570.144 110.903C570.199 110.426 570.396 109.976 570.708 109.61C571.019 109.245 571.433 108.979 571.896 108.848C572.518 108.676 573.182 108.755 573.745 109.068C574.309 109.382 574.725 109.905 574.904 110.523Z" fill="#CDEAEA"/>
<path d="M553.274 89.602C553.406 90.0645 553.397 90.5557 553.249 91.0133C553.101 91.471 552.82 91.8744 552.441 92.1725C552.063 92.4706 551.605 92.6499 551.124 92.6877C550.643 92.7255 550.162 92.6202 549.742 92.3849C549.321 92.1497 548.98 91.7952 548.762 91.3664C548.544 90.9377 548.458 90.4539 548.516 89.9764C548.573 89.499 548.771 89.0493 549.086 88.6844C549.4 88.3196 549.815 88.056 550.28 87.9271C550.587 87.84 550.908 87.8143 551.225 87.8515C551.541 87.8886 551.848 87.9878 552.126 88.1435C552.404 88.2991 552.649 88.5081 552.846 88.7584C553.043 89.0087 553.188 89.2954 553.274 89.602Z" fill="#CDEAEA"/>
<path d="M649.897 36.5509L644.916 56.328L616.486 64.3812L595.289 43.8643L602.495 15.2804L630.911 7.22712L649.897 25.5945V24.1988L631.191 6.05469L601.669 14.4289L594.184 44.1156L616.206 65.442L645.727 57.0677L649.925 40.5426L649.897 36.5509Z" fill="#A6E0DD"/>
<path d="M604.663 14.3308C604.794 14.7929 604.785 15.2833 604.637 15.7402C604.488 16.197 604.208 16.5998 603.83 16.8975C603.452 17.1952 602.995 17.3745 602.515 17.4128C602.035 17.4511 601.555 17.3466 601.134 17.1126C600.714 16.8786 600.373 16.5255 600.153 16.0979C599.934 15.6704 599.847 15.1877 599.903 14.7108C599.958 14.2338 600.155 13.784 600.467 13.4183C600.778 13.0526 601.192 12.7873 601.655 12.656C601.963 12.5688 602.285 12.5428 602.603 12.5798C602.92 12.6168 603.228 12.7159 603.507 12.8714C603.787 13.027 604.032 13.2359 604.231 13.4864C604.429 13.7368 604.576 14.0237 604.663 14.3308Z" fill="#CDEAEA"/>
<path d="M633.387 6.02658C633.518 6.48864 633.509 6.97908 633.36 7.43592C633.212 7.89275 632.931 8.29547 632.554 8.59318C632.176 8.8909 631.718 9.07019 631.239 9.10848C630.759 9.14677 630.278 9.04231 629.858 8.80828C629.438 8.57425 629.096 8.22121 628.877 7.7937C628.658 7.3662 628.571 6.88339 628.626 6.40643C628.682 5.92947 628.878 5.47971 629.19 5.11398C629.502 4.74825 629.916 4.48301 630.379 4.35172C630.687 4.26253 631.009 4.2352 631.328 4.27131C631.646 4.30741 631.954 4.40624 632.234 4.56205C632.514 4.71785 632.76 4.92748 632.958 5.17889C633.156 5.43029 633.301 5.71847 633.387 6.02658Z" fill="#CDEAEA"/>
<path d="M618.696 64.2691C618.83 64.7308 618.823 65.2218 618.677 65.6797C618.531 66.1377 618.252 66.5421 617.875 66.8418C617.499 67.1415 617.042 67.3229 616.562 67.3632C616.082 67.4035 615.6 67.3007 615.179 67.0679C614.757 66.8352 614.414 66.483 614.194 66.0558C613.973 65.6286 613.884 65.1457 613.939 64.6681C613.993 64.1906 614.189 63.74 614.5 63.3733C614.812 63.0066 615.225 62.7404 615.688 62.6082C616.308 62.4315 616.973 62.507 617.536 62.8184C618.1 63.1297 618.517 63.6515 618.696 64.2691Z" fill="#CDEAEA"/>
<path d="M597.08 43.3482C597.214 43.8099 597.207 44.3009 597.061 44.7588C596.915 45.2168 596.636 45.6212 596.259 45.9209C595.883 46.2206 595.425 46.402 594.945 46.4422C594.465 46.4825 593.984 46.3798 593.562 46.147C593.141 45.9143 592.798 45.5621 592.577 45.1349C592.357 44.7077 592.268 44.2248 592.323 43.7472C592.377 43.2697 592.572 42.8191 592.884 42.4524C593.195 42.0857 593.609 41.8195 594.072 41.6873C594.692 41.5106 595.356 41.5861 595.92 41.8975C596.484 42.2088 596.901 42.7306 597.08 43.3482Z" fill="#CDEAEA"/>
<path d="M516.449 117.585L494.903 123.698L478.813 108.136L484.284 86.4608L505.844 80.3477L521.878 95.9097L516.449 117.585ZM495.183 122.582L515.624 116.789L520.814 96.2168L505.564 81.4502L485.109 87.2982L479.904 107.815L495.183 122.582Z" fill="#A6E0DD"/>
<path d="M507.579 80.4874C507.667 80.8523 507.645 81.2348 507.516 81.5874C507.388 81.94 507.158 82.2471 506.856 82.4704C506.553 82.6937 506.192 82.8233 505.816 82.8431C505.44 82.8629 505.067 82.772 504.743 82.5817C504.419 82.3915 504.158 82.1103 503.993 81.7731C503.828 81.436 503.766 81.0579 503.814 80.6858C503.863 80.3137 504.02 79.9642 504.267 79.6808C504.513 79.3973 504.838 79.1924 505.2 79.0917C505.448 79.0227 505.708 79.0043 505.963 79.0376C506.219 79.0709 506.465 79.1552 506.687 79.2855C506.909 79.4158 507.102 79.5893 507.256 79.7959C507.409 80.0024 507.519 80.2376 507.579 80.4874Z" fill="#CDEAEA"/>
<path d="M523.277 95.5476C523.381 95.9109 523.374 96.2968 523.259 96.6564C523.143 97.0161 522.923 97.3335 522.626 97.5685C522.33 97.8036 521.971 97.9458 521.593 97.9773C521.216 98.0087 520.837 97.9279 520.506 97.7451C520.175 97.5623 519.905 97.2858 519.731 96.9502C519.557 96.6147 519.487 96.2353 519.529 95.8599C519.571 95.4844 519.723 95.1298 519.967 94.8408C520.211 94.5517 520.535 94.3411 520.899 94.2357C521.141 94.1634 521.396 94.1401 521.647 94.1672C521.899 94.1942 522.142 94.2711 522.364 94.3933C522.585 94.5154 522.78 94.6805 522.937 94.8788C523.094 95.077 523.209 95.3043 523.277 95.5476Z" fill="#CDEAEA"/>
<path d="M517.96 116.609C518.068 116.975 518.064 117.365 517.949 117.729C517.834 118.093 517.613 118.415 517.314 118.653C517.016 118.892 516.653 119.037 516.272 119.069C515.89 119.102 515.508 119.02 515.173 118.836C514.838 118.651 514.566 118.371 514.391 118.032C514.216 117.692 514.146 117.309 514.189 116.93C514.233 116.55 514.389 116.193 514.637 115.902C514.885 115.611 515.214 115.401 515.582 115.297C515.824 115.226 516.078 115.205 516.329 115.232C516.58 115.26 516.824 115.338 517.045 115.459C517.266 115.581 517.46 115.746 517.617 115.943C517.775 116.14 517.891 116.366 517.96 116.609Z" fill="#CDEAEA"/>
<path d="M496.89 122.624C496.994 122.991 496.988 123.38 496.871 123.743C496.753 124.106 496.531 124.426 496.231 124.663C495.931 124.9 495.568 125.042 495.187 125.073C494.806 125.103 494.425 125.02 494.091 124.834C493.757 124.648 493.487 124.367 493.313 124.028C493.139 123.688 493.07 123.305 493.115 122.926C493.16 122.547 493.317 122.191 493.565 121.901C493.814 121.611 494.143 121.401 494.511 121.298C495.003 121.161 495.529 121.223 495.975 121.471C496.421 121.72 496.749 122.134 496.89 122.624Z" fill="#CDEAEA"/>
<path d="M481.303 107.648C481.395 108.016 481.375 108.403 481.247 108.76C481.119 109.117 480.889 109.429 480.584 109.655C480.279 109.882 479.914 110.014 479.535 110.035C479.155 110.055 478.778 109.964 478.45 109.772C478.123 109.58 477.859 109.295 477.693 108.954C477.527 108.613 477.465 108.231 477.516 107.855C477.566 107.479 477.727 107.127 477.978 106.841C478.229 106.556 478.558 106.352 478.925 106.252C479.173 106.185 479.432 106.169 479.687 106.203C479.941 106.237 480.187 106.321 480.408 106.451C480.63 106.581 480.823 106.754 480.977 106.96C481.131 107.165 481.242 107.399 481.303 107.648Z" fill="#CDEAEA"/>
<path d="M486.718 86.405C486.809 86.773 486.79 87.1598 486.662 87.5169C486.534 87.874 486.303 88.1854 485.999 88.4121C485.694 88.6389 485.329 88.7709 484.949 88.7916C484.57 88.8124 484.193 88.7208 483.865 88.5286C483.537 88.3363 483.274 88.0519 483.108 87.7109C482.941 87.3699 482.88 86.9875 482.93 86.6117C482.981 86.2359 483.142 85.8834 483.392 85.5983C483.643 85.3133 483.973 85.1083 484.34 85.0092C484.588 84.9423 484.847 84.9254 485.101 84.9596C485.356 84.9938 485.601 85.0783 485.823 85.2083C486.044 85.3383 486.238 85.5111 486.391 85.7166C486.545 85.922 486.656 86.1561 486.718 86.405Z" fill="#CDEAEA"/>
<path d="M520.73 74.0253L508.292 77.5564L499.002 68.5681L502.164 56.0068L514.602 52.4756L523.878 61.4639L520.73 74.0253ZM508.474 76.8167L520.171 73.4949L523.151 61.7291L514.42 53.2711L502.71 56.5929L499.744 68.3587L508.474 76.8167Z" fill="#A6E0DD"/>
<path d="M503.899 55.9794C503.954 56.159 503.973 56.3479 503.953 56.5347C503.933 56.7215 503.876 56.9025 503.785 57.0667C503.693 57.2309 503.569 57.3749 503.421 57.4903C503.272 57.6057 503.102 57.6899 502.92 57.738C502.654 57.8081 502.374 57.7989 502.114 57.7114C501.854 57.6239 501.626 57.462 501.457 57.246C501.289 57.03 501.188 56.7693 501.167 56.4964C501.145 56.2234 501.205 55.9503 501.338 55.711C501.472 55.4717 501.673 55.2769 501.916 55.1506C502.16 55.0243 502.435 54.9722 502.708 55.0008C502.981 55.0294 503.239 55.1374 503.451 55.3114C503.663 55.4854 503.819 55.7177 503.899 55.9794Z" fill="#CDEAEA"/>
<path d="M515.918 52.5736C515.988 52.8382 515.978 53.1176 515.891 53.377C515.803 53.6363 515.641 53.8643 515.424 54.0324C515.208 54.2005 514.946 54.3014 514.673 54.3225C514.399 54.3435 514.126 54.2839 513.886 54.151C513.646 54.018 513.45 53.8176 513.324 53.5748C513.197 53.3319 513.145 53.0572 513.174 52.785C513.202 52.5128 513.311 52.255 513.485 52.0437C513.659 51.8324 513.892 51.6768 514.155 51.5966C514.335 51.5415 514.524 51.5232 514.711 51.5428C514.899 51.5624 515.08 51.6196 515.245 51.7108C515.409 51.802 515.554 51.9255 515.669 52.0738C515.785 52.222 515.869 52.392 515.918 52.5736Z" fill="#CDEAEA"/>
<path d="M524.676 61.1985C524.747 61.4637 524.738 61.7438 524.651 62.004C524.563 62.2643 524.401 62.4929 524.183 62.6614C523.966 62.83 523.704 62.9309 523.43 62.9515C523.155 62.9721 522.881 62.9117 522.641 62.7775C522.401 62.6434 522.206 62.4417 522.08 62.1975C521.954 61.9534 521.903 61.6776 521.934 61.4048C521.964 61.1321 522.075 60.8743 522.252 60.6638C522.428 60.4533 522.663 60.2995 522.927 60.2215C523.106 60.1686 523.294 60.152 523.48 60.1727C523.665 60.1934 523.845 60.2509 524.008 60.342C524.171 60.433 524.314 60.5558 524.429 60.7029C524.543 60.85 524.627 61.0185 524.676 61.1985Z" fill="#CDEAEA"/>
<path d="M521.794 73.2024C521.847 73.3811 521.863 73.5685 521.843 73.7538C521.822 73.939 521.764 74.1182 521.673 74.2808C521.582 74.4434 521.459 74.5862 521.311 74.7006C521.164 74.815 520.995 74.8988 520.814 74.9471C520.634 75.0022 520.445 75.0204 520.258 75.0008C520.07 74.9812 519.889 74.924 519.725 74.8327C519.56 74.7415 519.415 74.6181 519.3 74.4698C519.184 74.3216 519.1 74.1516 519.051 73.97C518.949 73.5999 518.999 73.2044 519.189 72.8707C519.379 72.537 519.695 72.2923 520.066 72.1905C520.437 72.0887 520.833 72.1381 521.168 72.3279C521.502 72.5177 521.748 72.8323 521.85 73.2024H521.794Z" fill="#CDEAEA"/>
<path d="M509.664 76.8867C509.719 77.0662 509.737 77.2551 509.717 77.4419C509.698 77.6287 509.64 77.8097 509.549 77.9739C509.458 78.1381 509.334 78.2822 509.185 78.3975C509.037 78.5129 508.866 78.5972 508.684 78.6453C508.419 78.7153 508.139 78.7061 507.879 78.6186C507.619 78.5311 507.39 78.3693 507.222 78.1532C507.053 77.9372 506.952 77.6765 506.931 77.4036C506.91 77.1307 506.97 76.8575 507.103 76.6182C507.236 76.3789 507.437 76.1841 507.681 76.0578C507.924 75.9315 508.199 75.8794 508.472 75.908C508.745 75.9366 509.004 76.0447 509.215 76.2187C509.427 76.3927 509.583 76.625 509.664 76.8867Z" fill="#CDEAEA"/>
<path d="M500.891 68.052C500.944 68.2307 500.961 68.4181 500.94 68.6034C500.919 68.7886 500.862 68.9678 500.77 69.1304C500.679 69.293 500.556 69.4358 500.409 69.5502C500.261 69.6646 500.092 69.7484 499.912 69.7967C499.732 69.8518 499.542 69.87 499.355 69.8504C499.168 69.8308 498.986 69.7737 498.822 69.6824C498.657 69.5912 498.513 69.4677 498.397 69.3194C498.282 69.1712 498.197 69.0012 498.149 68.8197C498.047 68.4495 498.096 68.054 498.287 67.7203C498.477 67.3866 498.792 67.1419 499.163 67.0401C499.534 66.9383 499.931 66.9877 500.265 67.1775C500.6 67.3673 500.845 67.6819 500.947 68.052H500.891Z" fill="#CDEAEA"/>
<path d="M581.69 38.4493L560.144 44.5625L544.054 29.0003L549.524 7.3251L571.085 1.21191L587.16 16.774L581.69 38.4493ZM560.423 43.4459L580.878 37.6537L586.069 17.0811L570.847 2.24472L550.392 8.05081L545.159 28.6794L560.423 43.4459Z" fill="#A6E0DD"/>
<path d="M572.833 1.28143C572.922 1.52978 572.958 1.7936 572.94 2.05654C572.923 2.31949 572.851 2.57596 572.729 2.81011C572.608 3.04425 572.44 3.25112 572.235 3.41783C572.031 3.58454 571.794 3.70759 571.54 3.77936C571.286 3.85113 571.019 3.87009 570.758 3.83508C570.496 3.80006 570.244 3.71179 570.018 3.57577C569.791 3.43974 569.595 3.25887 569.442 3.04429C569.289 2.8297 569.181 2.58594 569.126 2.3282C569.023 1.84997 569.107 1.35083 569.36 0.931988C569.613 0.513142 570.017 0.205962 570.488 0.0727921C570.96 -0.0603775 571.465 -0.0095694 571.9 0.214884C572.336 0.439337 572.669 0.820612 572.833 1.28143Z" fill="#CDEAEA"/>
<path d="M588.476 16.3407C588.583 16.7071 588.579 17.097 588.464 17.461C588.349 17.8251 588.128 18.1469 587.83 18.3855C587.531 18.6241 587.168 18.7688 586.787 18.8013C586.406 18.8337 586.023 18.7524 585.689 18.5677C585.354 18.383 585.081 18.1032 584.906 17.7639C584.731 17.4245 584.661 17.0409 584.705 16.6617C584.748 16.2825 584.904 15.9248 585.152 15.6341C585.4 15.3434 585.729 15.1327 586.097 15.0288C586.587 14.8906 587.112 14.9509 587.557 15.1966C588.002 15.4423 588.333 15.8535 588.476 16.3407Z" fill="#CDEAEA"/>
<path d="M583.201 37.43C583.305 37.7933 583.298 38.179 583.183 38.5387C583.067 38.8983 582.847 39.2158 582.55 39.4509C582.254 39.6859 581.894 39.8282 581.517 39.8596C581.14 39.891 580.761 39.8103 580.43 39.6275C580.099 39.4447 579.829 39.168 579.655 38.8325C579.481 38.497 579.411 38.1175 579.452 37.7421C579.494 37.3667 579.647 37.0121 579.891 36.723C580.135 36.434 580.459 36.2235 580.822 36.118C581.065 36.0477 581.319 36.0258 581.57 36.0538C581.821 36.0817 582.064 36.1588 582.285 36.2807C582.506 36.4026 582.701 36.5669 582.858 36.7642C583.015 36.9614 583.132 37.1877 583.201 37.43Z" fill="#CDEAEA"/>
<path d="M562.13 43.4032C562.234 43.7665 562.228 44.1524 562.112 44.512C561.996 44.8717 561.776 45.1891 561.48 45.4241C561.183 45.6592 560.824 45.8014 560.446 45.8329C560.069 45.8643 559.691 45.7835 559.359 45.6007C559.028 45.4179 558.758 45.1413 558.584 44.8058C558.41 44.4702 558.34 44.0909 558.382 43.7155C558.424 43.34 558.576 42.9854 558.82 42.6964C559.064 42.4073 559.388 42.1967 559.752 42.0913C560.241 41.9531 560.766 42.0134 561.212 42.2591C561.657 42.5048 561.987 42.916 562.13 43.4032Z" fill="#CDEAEA"/>
<path d="M546.516 28.4419C546.618 28.9202 546.535 29.4193 546.282 29.8381C546.029 30.257 545.625 30.5642 545.154 30.6973C544.682 30.8305 544.177 30.7797 543.742 30.5552C543.306 30.3308 542.972 29.9495 542.808 29.4887C542.72 29.2403 542.684 28.9765 542.701 28.7136C542.719 28.4506 542.791 28.1942 542.913 27.96C543.034 27.7259 543.202 27.519 543.406 27.3523C543.611 27.1856 543.848 27.0625 544.102 26.9908C544.356 26.919 544.622 26.9 544.884 26.935C545.146 26.9701 545.398 27.0583 545.624 27.1944C545.851 27.3304 546.047 27.5112 546.2 27.7258C546.353 27.9404 546.461 28.1842 546.516 28.4419Z" fill="#CDEAEA"/>
<path d="M551.959 7.19939C552.061 7.67763 551.977 8.17685 551.724 8.59569C551.471 9.01454 551.068 9.32164 550.596 9.45481C550.125 9.58797 549.62 9.53725 549.184 9.3128C548.749 9.08835 548.415 8.70698 548.251 8.24617C548.149 7.76794 548.233 7.2688 548.486 6.84996C548.739 6.43111 549.142 6.12393 549.613 5.99076C550.085 5.85759 550.59 5.9084 551.026 6.13285C551.461 6.35731 551.795 6.73858 551.959 7.19939Z" fill="#CDEAEA"/>
</g>
</svg>
