<svg width="434" height="433" viewBox="0 0 434 433" fill="none" xmlns="http://www.w3.org/2000/svg">
<path d="M100.139 0C68.8073 7.93582 60.1006 16.4044 54.6279 36.0747L72.6755 378H406.164C426.902 366.931 433.265 350.44 433.628 299.577C423.333 197.51 410.769 139.329 392.04 36.0747C382.596 21.7603 380.543 12.2025 343.39 10.9793L100.139 0Z" fill="#535455"/>
<path d="M0 337.695L37.5199 55.5321C46.4988 34.2465 54.4995 24.4931 81.0431 13.5078C164.926 5.63801 232.871 3.95855 346.684 0C376.017 8.8112 393.61 13.5281 408.217 55.5321C411.7 169.345 415.367 250.574 414.971 324.938C413.772 357.978 406.418 371.127 380.452 384.222C223.097 413.091 136.987 428.655 63.0335 433C18.4371 419.114 0.327199 399.961 0 337.695Z" fill="white"/>
</svg>
